<mxfile host="app.diagrams.net" modified="2023-04-09T15:53:58.999Z" agent="Mozilla/5.0 (Windows NT 10.0; WOW64) AppleWebKit/537.36 (KHTML, like Gecko) Chrome/86.0.4240.198 Safari/537.36" etag="BtwMSvlqxLHWYvtw7AsJ" version="21.1.4" type="device">
  <diagram id="9MDA8xxCKIqWpt2-5bt2" name="Page-1">
    <mxGraphModel dx="3511" dy="-119" grid="1" gridSize="10" guides="1" tooltips="1" connect="1" arrows="1" fold="1" page="1" pageScale="1" pageWidth="827" pageHeight="1169" math="0" shadow="0">
      <root>
        <mxCell id="0" />
        <mxCell id="1" parent="0" />
        <mxCell id="qJLwlTwxIQTCb8-3PScf-7" value="&lt;font style=&quot;font-size: 17px;&quot;&gt;Порода&lt;/font&gt;" style="ellipse;whiteSpace=wrap;html=1;aspect=fixed;" vertex="1" parent="1">
          <mxGeometry x="740" y="1240" width="100" height="100" as="geometry" />
        </mxCell>
        <mxCell id="qJLwlTwxIQTCb8-3PScf-10" value="" style="endArrow=classic;html=1;entryX=0.5;entryY=1;entryDx=0;entryDy=0;exitX=0.5;exitY=0;exitDx=0;exitDy=0;" edge="1" parent="1" source="qJLwlTwxIQTCb8-3PScf-46" target="qJLwlTwxIQTCb8-3PScf-49">
          <mxGeometry relative="1" as="geometry">
            <mxPoint x="890" y="1590" as="sourcePoint" />
            <mxPoint x="760" y="1500" as="targetPoint" />
          </mxGeometry>
        </mxCell>
        <mxCell id="qJLwlTwxIQTCb8-3PScf-11" value="IS-A" style="edgeLabel;resizable=0;html=1;align=center;verticalAlign=middle;fontSize=16;" connectable="0" vertex="1" parent="qJLwlTwxIQTCb8-3PScf-10">
          <mxGeometry relative="1" as="geometry" />
        </mxCell>
        <mxCell id="qJLwlTwxIQTCb8-3PScf-22" value="Чау-Чау" style="ellipse;whiteSpace=wrap;html=1;align=center;newEdgeStyle={&quot;edgeStyle&quot;:&quot;entityRelationEdgeStyle&quot;,&quot;startArrow&quot;:&quot;none&quot;,&quot;endArrow&quot;:&quot;none&quot;,&quot;segment&quot;:10,&quot;curved&quot;:1};treeFolding=1;treeMoving=1;fontSize=17;" vertex="1" parent="1">
          <mxGeometry x="840" y="1722" width="100" height="100" as="geometry" />
        </mxCell>
        <mxCell id="qJLwlTwxIQTCb8-3PScf-23" value="Большой Вандейский&lt;br&gt;грифон" style="ellipse;whiteSpace=wrap;html=1;align=center;newEdgeStyle={&quot;edgeStyle&quot;:&quot;entityRelationEdgeStyle&quot;,&quot;startArrow&quot;:&quot;none&quot;,&quot;endArrow&quot;:&quot;none&quot;,&quot;segment&quot;:10,&quot;curved&quot;:1};treeFolding=1;treeMoving=1;fontSize=17;" vertex="1" parent="1">
          <mxGeometry x="1200" y="1722" width="100" height="100" as="geometry" />
        </mxCell>
        <mxCell id="qJLwlTwxIQTCb8-3PScf-30" value="Такса" style="ellipse;whiteSpace=wrap;html=1;align=center;newEdgeStyle={&quot;edgeStyle&quot;:&quot;entityRelationEdgeStyle&quot;,&quot;startArrow&quot;:&quot;none&quot;,&quot;endArrow&quot;:&quot;none&quot;,&quot;segment&quot;:10,&quot;curved&quot;:1};treeFolding=1;treeMoving=1;fontSize=17;" vertex="1" parent="1">
          <mxGeometry x="960" y="1722" width="100" height="100" as="geometry" />
        </mxCell>
        <mxCell id="qJLwlTwxIQTCb8-3PScf-31" value="Йоркшир-Терьер" style="ellipse;whiteSpace=wrap;html=1;align=center;newEdgeStyle={&quot;edgeStyle&quot;:&quot;entityRelationEdgeStyle&quot;,&quot;startArrow&quot;:&quot;none&quot;,&quot;endArrow&quot;:&quot;none&quot;,&quot;segment&quot;:10,&quot;curved&quot;:1};treeFolding=1;treeMoving=1;fontSize=17;" vertex="1" parent="1">
          <mxGeometry x="1080" y="1722" width="100" height="100" as="geometry" />
        </mxCell>
        <mxCell id="qJLwlTwxIQTCb8-3PScf-34" value="Колли" style="ellipse;whiteSpace=wrap;html=1;align=center;newEdgeStyle={&quot;edgeStyle&quot;:&quot;entityRelationEdgeStyle&quot;,&quot;startArrow&quot;:&quot;none&quot;,&quot;endArrow&quot;:&quot;none&quot;,&quot;segment&quot;:10,&quot;curved&quot;:1};treeFolding=1;treeMoving=1;fontSize=17;" vertex="1" parent="1">
          <mxGeometry x="1443.63" y="1719" width="100" height="100" as="geometry" />
        </mxCell>
        <mxCell id="qJLwlTwxIQTCb8-3PScf-35" value="&lt;font style=&quot;font-size: 17px;&quot;&gt;Сенбернар&lt;/font&gt;" style="ellipse;whiteSpace=wrap;html=1;align=center;newEdgeStyle={&quot;edgeStyle&quot;:&quot;entityRelationEdgeStyle&quot;,&quot;startArrow&quot;:&quot;none&quot;,&quot;endArrow&quot;:&quot;none&quot;,&quot;segment&quot;:10,&quot;curved&quot;:1};treeFolding=1;treeMoving=1;fontSize=17;" vertex="1" parent="1">
          <mxGeometry x="1920" y="1719" width="100" height="100" as="geometry" />
        </mxCell>
        <mxCell id="qJLwlTwxIQTCb8-3PScf-36" value="&lt;font style=&quot;font-size: 17px;&quot;&gt;Ньюфаун&lt;br&gt;дленд&lt;/font&gt;" style="ellipse;whiteSpace=wrap;html=1;align=center;newEdgeStyle={&quot;edgeStyle&quot;:&quot;entityRelationEdgeStyle&quot;,&quot;startArrow&quot;:&quot;none&quot;,&quot;endArrow&quot;:&quot;none&quot;,&quot;segment&quot;:10,&quot;curved&quot;:1};treeFolding=1;treeMoving=1;fontSize=17;" vertex="1" parent="1">
          <mxGeometry x="1800" y="1719" width="100" height="100" as="geometry" />
        </mxCell>
        <mxCell id="qJLwlTwxIQTCb8-3PScf-37" value="&lt;font style=&quot;font-size: 17px;&quot;&gt;Ирландский волкодав&lt;/font&gt;" style="ellipse;whiteSpace=wrap;html=1;align=center;newEdgeStyle={&quot;edgeStyle&quot;:&quot;entityRelationEdgeStyle&quot;,&quot;startArrow&quot;:&quot;none&quot;,&quot;endArrow&quot;:&quot;none&quot;,&quot;segment&quot;:10,&quot;curved&quot;:1};treeFolding=1;treeMoving=1;fontSize=17;" vertex="1" parent="1">
          <mxGeometry x="1680" y="1722" width="100" height="100" as="geometry" />
        </mxCell>
        <mxCell id="qJLwlTwxIQTCb8-3PScf-38" value="&lt;font style=&quot;font-size: 17px;&quot;&gt;Кавказская овчарка&lt;/font&gt;" style="ellipse;whiteSpace=wrap;html=1;align=center;newEdgeStyle={&quot;edgeStyle&quot;:&quot;entityRelationEdgeStyle&quot;,&quot;startArrow&quot;:&quot;none&quot;,&quot;endArrow&quot;:&quot;none&quot;,&quot;segment&quot;:10,&quot;curved&quot;:1};treeFolding=1;treeMoving=1;fontSize=17;" vertex="1" parent="1">
          <mxGeometry x="1560" y="1722" width="100" height="100" as="geometry" />
        </mxCell>
        <mxCell id="qJLwlTwxIQTCb8-3PScf-39" value="Ирландский сеттер" style="ellipse;whiteSpace=wrap;html=1;align=center;newEdgeStyle={&quot;edgeStyle&quot;:&quot;entityRelationEdgeStyle&quot;,&quot;startArrow&quot;:&quot;none&quot;,&quot;endArrow&quot;:&quot;none&quot;,&quot;segment&quot;:10,&quot;curved&quot;:1};treeFolding=1;treeMoving=1;fontSize=17;" vertex="1" parent="1">
          <mxGeometry x="1320" y="1719" width="100" height="100" as="geometry" />
        </mxCell>
        <mxCell id="qJLwlTwxIQTCb8-3PScf-41" value="Гончая" style="ellipse;whiteSpace=wrap;html=1;align=center;newEdgeStyle={&quot;edgeStyle&quot;:&quot;entityRelationEdgeStyle&quot;,&quot;startArrow&quot;:&quot;none&quot;,&quot;endArrow&quot;:&quot;none&quot;,&quot;segment&quot;:10,&quot;curved&quot;:1};treeFolding=1;treeMoving=1;fontSize=17;" vertex="1" parent="1">
          <mxGeometry x="110" y="1719" width="100" height="100" as="geometry" />
        </mxCell>
        <mxCell id="qJLwlTwxIQTCb8-3PScf-42" value="Мопс" style="ellipse;whiteSpace=wrap;html=1;align=center;newEdgeStyle={&quot;edgeStyle&quot;:&quot;entityRelationEdgeStyle&quot;,&quot;startArrow&quot;:&quot;none&quot;,&quot;endArrow&quot;:&quot;none&quot;,&quot;segment&quot;:10,&quot;curved&quot;:1};treeFolding=1;treeMoving=1;fontSize=17;" vertex="1" parent="1">
          <mxGeometry x="230" y="1719" width="100" height="100" as="geometry" />
        </mxCell>
        <mxCell id="qJLwlTwxIQTCb8-3PScf-43" value="Чихуахуа" style="ellipse;whiteSpace=wrap;html=1;align=center;newEdgeStyle={&quot;edgeStyle&quot;:&quot;entityRelationEdgeStyle&quot;,&quot;startArrow&quot;:&quot;none&quot;,&quot;endArrow&quot;:&quot;none&quot;,&quot;segment&quot;:10,&quot;curved&quot;:1};treeFolding=1;treeMoving=1;fontSize=17;" vertex="1" parent="1">
          <mxGeometry x="360" y="1719" width="100" height="100" as="geometry" />
        </mxCell>
        <mxCell id="qJLwlTwxIQTCb8-3PScf-44" value="Датский дог" style="ellipse;whiteSpace=wrap;html=1;align=center;newEdgeStyle={&quot;edgeStyle&quot;:&quot;entityRelationEdgeStyle&quot;,&quot;startArrow&quot;:&quot;none&quot;,&quot;endArrow&quot;:&quot;none&quot;,&quot;segment&quot;:10,&quot;curved&quot;:1};treeFolding=1;treeMoving=1;fontSize=17;" vertex="1" parent="1">
          <mxGeometry x="480" y="1719" width="100" height="100" as="geometry" />
        </mxCell>
        <mxCell id="qJLwlTwxIQTCb8-3PScf-45" value="Фоксхаунд" style="ellipse;whiteSpace=wrap;html=1;align=center;newEdgeStyle={&quot;edgeStyle&quot;:&quot;entityRelationEdgeStyle&quot;,&quot;startArrow&quot;:&quot;none&quot;,&quot;endArrow&quot;:&quot;none&quot;,&quot;segment&quot;:10,&quot;curved&quot;:1};treeFolding=1;treeMoving=1;fontSize=17;" vertex="1" parent="1">
          <mxGeometry x="600" y="1719" width="100" height="100" as="geometry" />
        </mxCell>
        <mxCell id="qJLwlTwxIQTCb8-3PScf-46" value="Кокер-спаниэль" style="ellipse;whiteSpace=wrap;html=1;align=center;newEdgeStyle={&quot;edgeStyle&quot;:&quot;entityRelationEdgeStyle&quot;,&quot;startArrow&quot;:&quot;none&quot;,&quot;endArrow&quot;:&quot;none&quot;,&quot;segment&quot;:10,&quot;curved&quot;:1};treeFolding=1;treeMoving=1;fontSize=17;" vertex="1" parent="1">
          <mxGeometry x="720" y="1722" width="100" height="100" as="geometry" />
        </mxCell>
        <mxCell id="qJLwlTwxIQTCb8-3PScf-47" value="Рост собаки:&lt;br&gt;менее 50 см" style="ellipse;whiteSpace=wrap;html=1;align=center;newEdgeStyle={&quot;edgeStyle&quot;:&quot;entityRelationEdgeStyle&quot;,&quot;startArrow&quot;:&quot;none&quot;,&quot;endArrow&quot;:&quot;none&quot;,&quot;segment&quot;:10,&quot;curved&quot;:1};treeFolding=1;treeMoving=1;fontSize=17;" vertex="1" parent="1">
          <mxGeometry x="-170" y="2330" width="100" height="100" as="geometry" />
        </mxCell>
        <mxCell id="qJLwlTwxIQTCb8-3PScf-48" value="Рост собаки:&lt;br&gt;более 50 см" style="ellipse;whiteSpace=wrap;html=1;align=center;newEdgeStyle={&quot;edgeStyle&quot;:&quot;entityRelationEdgeStyle&quot;,&quot;startArrow&quot;:&quot;none&quot;,&quot;endArrow&quot;:&quot;none&quot;,&quot;segment&quot;:10,&quot;curved&quot;:1};treeFolding=1;treeMoving=1;fontSize=17;" vertex="1" parent="1">
          <mxGeometry x="-330" y="2320" width="100" height="100" as="geometry" />
        </mxCell>
        <mxCell id="qJLwlTwxIQTCb8-3PScf-49" value="Длинно-шерстная" style="ellipse;whiteSpace=wrap;html=1;align=center;newEdgeStyle={&quot;edgeStyle&quot;:&quot;entityRelationEdgeStyle&quot;,&quot;startArrow&quot;:&quot;none&quot;,&quot;endArrow&quot;:&quot;none&quot;,&quot;segment&quot;:10,&quot;curved&quot;:1};treeFolding=1;treeMoving=1;fontSize=17;" vertex="1" parent="1">
          <mxGeometry x="1080" y="1440" width="100" height="100" as="geometry" />
        </mxCell>
        <mxCell id="qJLwlTwxIQTCb8-3PScf-50" value="Вес более 50 кг" style="ellipse;whiteSpace=wrap;html=1;align=center;newEdgeStyle={&quot;edgeStyle&quot;:&quot;entityRelationEdgeStyle&quot;,&quot;startArrow&quot;:&quot;none&quot;,&quot;endArrow&quot;:&quot;none&quot;,&quot;segment&quot;:10,&quot;curved&quot;:1};treeFolding=1;treeMoving=1;fontSize=17;" vertex="1" parent="1">
          <mxGeometry x="2210" y="1880" width="100" height="100" as="geometry" />
        </mxCell>
        <mxCell id="qJLwlTwxIQTCb8-3PScf-51" value="Вес менее 50 кг" style="ellipse;whiteSpace=wrap;html=1;align=center;newEdgeStyle={&quot;edgeStyle&quot;:&quot;entityRelationEdgeStyle&quot;,&quot;startArrow&quot;:&quot;none&quot;,&quot;endArrow&quot;:&quot;none&quot;,&quot;segment&quot;:10,&quot;curved&quot;:1};treeFolding=1;treeMoving=1;fontSize=17;" vertex="1" parent="1">
          <mxGeometry x="2080" y="1880" width="100" height="100" as="geometry" />
        </mxCell>
        <mxCell id="qJLwlTwxIQTCb8-3PScf-52" value="Длинные уши" style="ellipse;whiteSpace=wrap;html=1;align=center;newEdgeStyle={&quot;edgeStyle&quot;:&quot;entityRelationEdgeStyle&quot;,&quot;startArrow&quot;:&quot;none&quot;,&quot;endArrow&quot;:&quot;none&quot;,&quot;segment&quot;:10,&quot;curved&quot;:1};treeFolding=1;treeMoving=1;fontSize=17;" vertex="1" parent="1">
          <mxGeometry x="2210" y="2120" width="100" height="100" as="geometry" />
        </mxCell>
        <mxCell id="qJLwlTwxIQTCb8-3PScf-54" value="Короткие уши" style="ellipse;whiteSpace=wrap;html=1;align=center;newEdgeStyle={&quot;edgeStyle&quot;:&quot;entityRelationEdgeStyle&quot;,&quot;startArrow&quot;:&quot;none&quot;,&quot;endArrow&quot;:&quot;none&quot;,&quot;segment&quot;:10,&quot;curved&quot;:1};treeFolding=1;treeMoving=1;fontSize=17;" vertex="1" parent="1">
          <mxGeometry x="2080" y="2120" width="100" height="100" as="geometry" />
        </mxCell>
        <mxCell id="qJLwlTwxIQTCb8-3PScf-59" value="" style="endArrow=classic;html=1;exitX=0.5;exitY=0;exitDx=0;exitDy=0;entryX=0.5;entryY=1;entryDx=0;entryDy=0;" edge="1" parent="1" source="qJLwlTwxIQTCb8-3PScf-22" target="qJLwlTwxIQTCb8-3PScf-49">
          <mxGeometry relative="1" as="geometry">
            <mxPoint x="1030" y="1752" as="sourcePoint" />
            <mxPoint x="920" y="1460" as="targetPoint" />
          </mxGeometry>
        </mxCell>
        <mxCell id="qJLwlTwxIQTCb8-3PScf-60" value="IS-A" style="edgeLabel;resizable=0;html=1;align=center;verticalAlign=middle;fontSize=16;" connectable="0" vertex="1" parent="qJLwlTwxIQTCb8-3PScf-59">
          <mxGeometry relative="1" as="geometry" />
        </mxCell>
        <mxCell id="qJLwlTwxIQTCb8-3PScf-69" value="" style="endArrow=classic;html=1;exitX=0.5;exitY=0;exitDx=0;exitDy=0;entryX=0.5;entryY=1;entryDx=0;entryDy=0;" edge="1" parent="1" source="qJLwlTwxIQTCb8-3PScf-30" target="qJLwlTwxIQTCb8-3PScf-49">
          <mxGeometry relative="1" as="geometry">
            <mxPoint x="1150" y="1729" as="sourcePoint" />
            <mxPoint x="930" y="1460" as="targetPoint" />
          </mxGeometry>
        </mxCell>
        <mxCell id="qJLwlTwxIQTCb8-3PScf-70" value="IS-A" style="edgeLabel;resizable=0;html=1;align=center;verticalAlign=middle;fontSize=16;" connectable="0" vertex="1" parent="qJLwlTwxIQTCb8-3PScf-69">
          <mxGeometry relative="1" as="geometry" />
        </mxCell>
        <mxCell id="qJLwlTwxIQTCb8-3PScf-71" value="" style="endArrow=classic;html=1;exitX=0.5;exitY=0;exitDx=0;exitDy=0;entryX=0.5;entryY=1;entryDx=0;entryDy=0;" edge="1" parent="1" source="qJLwlTwxIQTCb8-3PScf-31" target="qJLwlTwxIQTCb8-3PScf-49">
          <mxGeometry relative="1" as="geometry">
            <mxPoint x="1430" y="1692" as="sourcePoint" />
            <mxPoint x="1070" y="1430" as="targetPoint" />
          </mxGeometry>
        </mxCell>
        <mxCell id="qJLwlTwxIQTCb8-3PScf-72" value="IS-A" style="edgeLabel;resizable=0;html=1;align=center;verticalAlign=middle;fontSize=16;" connectable="0" vertex="1" parent="qJLwlTwxIQTCb8-3PScf-71">
          <mxGeometry relative="1" as="geometry" />
        </mxCell>
        <mxCell id="qJLwlTwxIQTCb8-3PScf-73" value="" style="endArrow=classic;html=1;exitX=0.5;exitY=0;exitDx=0;exitDy=0;entryX=0.5;entryY=1;entryDx=0;entryDy=0;" edge="1" parent="1" source="qJLwlTwxIQTCb8-3PScf-39" target="qJLwlTwxIQTCb8-3PScf-49">
          <mxGeometry relative="1" as="geometry">
            <mxPoint x="1640" y="1719" as="sourcePoint" />
            <mxPoint x="970" y="1470" as="targetPoint" />
          </mxGeometry>
        </mxCell>
        <mxCell id="qJLwlTwxIQTCb8-3PScf-74" value="IS-A" style="edgeLabel;resizable=0;html=1;align=center;verticalAlign=middle;fontSize=16;" connectable="0" vertex="1" parent="qJLwlTwxIQTCb8-3PScf-73">
          <mxGeometry relative="1" as="geometry" />
        </mxCell>
        <mxCell id="qJLwlTwxIQTCb8-3PScf-75" value="" style="endArrow=classic;html=1;exitX=0.5;exitY=0;exitDx=0;exitDy=0;entryX=0.5;entryY=1;entryDx=0;entryDy=0;" edge="1" parent="1" source="qJLwlTwxIQTCb8-3PScf-34" target="qJLwlTwxIQTCb8-3PScf-49">
          <mxGeometry relative="1" as="geometry">
            <mxPoint x="1810" y="1712" as="sourcePoint" />
            <mxPoint x="1450" y="1450" as="targetPoint" />
          </mxGeometry>
        </mxCell>
        <mxCell id="qJLwlTwxIQTCb8-3PScf-76" value="IS-A" style="edgeLabel;resizable=0;html=1;align=center;verticalAlign=middle;fontSize=16;" connectable="0" vertex="1" parent="qJLwlTwxIQTCb8-3PScf-75">
          <mxGeometry relative="1" as="geometry" />
        </mxCell>
        <mxCell id="qJLwlTwxIQTCb8-3PScf-77" value="" style="endArrow=classic;html=1;exitX=0.5;exitY=0;exitDx=0;exitDy=0;entryX=0.5;entryY=1;entryDx=0;entryDy=0;" edge="1" parent="1" source="qJLwlTwxIQTCb8-3PScf-23" target="qJLwlTwxIQTCb8-3PScf-49">
          <mxGeometry relative="1" as="geometry">
            <mxPoint x="1650" y="1729" as="sourcePoint" />
            <mxPoint x="1290" y="1467" as="targetPoint" />
          </mxGeometry>
        </mxCell>
        <mxCell id="qJLwlTwxIQTCb8-3PScf-78" value="IS-A" style="edgeLabel;resizable=0;html=1;align=center;verticalAlign=middle;fontSize=16;" connectable="0" vertex="1" parent="qJLwlTwxIQTCb8-3PScf-77">
          <mxGeometry relative="1" as="geometry" />
        </mxCell>
        <mxCell id="qJLwlTwxIQTCb8-3PScf-79" value="" style="endArrow=classic;html=1;exitX=0.5;exitY=0;exitDx=0;exitDy=0;entryX=0.5;entryY=1;entryDx=0;entryDy=0;" edge="1" parent="1" source="qJLwlTwxIQTCb8-3PScf-38" target="qJLwlTwxIQTCb8-3PScf-49">
          <mxGeometry relative="1" as="geometry">
            <mxPoint x="1840" y="1732" as="sourcePoint" />
            <mxPoint x="960" y="1460" as="targetPoint" />
          </mxGeometry>
        </mxCell>
        <mxCell id="qJLwlTwxIQTCb8-3PScf-80" value="IS-A" style="edgeLabel;resizable=0;html=1;align=center;verticalAlign=middle;fontSize=16;" connectable="0" vertex="1" parent="qJLwlTwxIQTCb8-3PScf-79">
          <mxGeometry relative="1" as="geometry" />
        </mxCell>
        <mxCell id="qJLwlTwxIQTCb8-3PScf-81" value="" style="endArrow=classic;html=1;exitX=0.5;exitY=0;exitDx=0;exitDy=0;entryX=0.5;entryY=1;entryDx=0;entryDy=0;" edge="1" parent="1" source="qJLwlTwxIQTCb8-3PScf-37" target="qJLwlTwxIQTCb8-3PScf-49">
          <mxGeometry relative="1" as="geometry">
            <mxPoint x="1660" y="1729" as="sourcePoint" />
            <mxPoint x="940" y="1460" as="targetPoint" />
          </mxGeometry>
        </mxCell>
        <mxCell id="qJLwlTwxIQTCb8-3PScf-82" value="IS-A" style="edgeLabel;resizable=0;html=1;align=center;verticalAlign=middle;fontSize=16;" connectable="0" vertex="1" parent="qJLwlTwxIQTCb8-3PScf-81">
          <mxGeometry relative="1" as="geometry" />
        </mxCell>
        <mxCell id="qJLwlTwxIQTCb8-3PScf-83" value="" style="endArrow=classic;html=1;exitX=0.5;exitY=0;exitDx=0;exitDy=0;entryX=0.5;entryY=1;entryDx=0;entryDy=0;" edge="1" parent="1" source="qJLwlTwxIQTCb8-3PScf-36" target="qJLwlTwxIQTCb8-3PScf-49">
          <mxGeometry relative="1" as="geometry">
            <mxPoint x="1670" y="1739" as="sourcePoint" />
            <mxPoint x="1040" y="1450" as="targetPoint" />
          </mxGeometry>
        </mxCell>
        <mxCell id="qJLwlTwxIQTCb8-3PScf-84" value="IS-A" style="edgeLabel;resizable=0;html=1;align=center;verticalAlign=middle;fontSize=16;" connectable="0" vertex="1" parent="qJLwlTwxIQTCb8-3PScf-83">
          <mxGeometry relative="1" as="geometry" />
        </mxCell>
        <mxCell id="qJLwlTwxIQTCb8-3PScf-85" value="" style="endArrow=classic;html=1;exitX=0.5;exitY=0;exitDx=0;exitDy=0;entryX=0.5;entryY=1;entryDx=0;entryDy=0;" edge="1" parent="1" source="qJLwlTwxIQTCb8-3PScf-35" target="qJLwlTwxIQTCb8-3PScf-49">
          <mxGeometry relative="1" as="geometry">
            <mxPoint x="1900" y="1732" as="sourcePoint" />
            <mxPoint x="1000" y="1470" as="targetPoint" />
          </mxGeometry>
        </mxCell>
        <mxCell id="qJLwlTwxIQTCb8-3PScf-86" value="IS-A" style="edgeLabel;resizable=0;html=1;align=center;verticalAlign=middle;fontSize=16;" connectable="0" vertex="1" parent="qJLwlTwxIQTCb8-3PScf-85">
          <mxGeometry relative="1" as="geometry" />
        </mxCell>
        <mxCell id="qJLwlTwxIQTCb8-3PScf-121" value="Короткий хвост" style="ellipse;whiteSpace=wrap;html=1;align=center;newEdgeStyle={&quot;edgeStyle&quot;:&quot;entityRelationEdgeStyle&quot;,&quot;startArrow&quot;:&quot;none&quot;,&quot;endArrow&quot;:&quot;none&quot;,&quot;segment&quot;:10,&quot;curved&quot;:1};treeFolding=1;treeMoving=1;fontSize=17;" vertex="1" parent="1">
          <mxGeometry x="-190" y="1900" width="100" height="100" as="geometry" />
        </mxCell>
        <mxCell id="qJLwlTwxIQTCb8-3PScf-122" value="Тело длинное" style="ellipse;whiteSpace=wrap;html=1;align=center;newEdgeStyle={&quot;edgeStyle&quot;:&quot;entityRelationEdgeStyle&quot;,&quot;startArrow&quot;:&quot;none&quot;,&quot;endArrow&quot;:&quot;none&quot;,&quot;segment&quot;:10,&quot;curved&quot;:1};treeFolding=1;treeMoving=1;fontSize=17;" vertex="1" parent="1">
          <mxGeometry x="-330" y="2120" width="100" height="100" as="geometry" />
        </mxCell>
        <mxCell id="qJLwlTwxIQTCb8-3PScf-123" value="Тело короткое" style="ellipse;whiteSpace=wrap;html=1;align=center;newEdgeStyle={&quot;edgeStyle&quot;:&quot;entityRelationEdgeStyle&quot;,&quot;startArrow&quot;:&quot;none&quot;,&quot;endArrow&quot;:&quot;none&quot;,&quot;segment&quot;:10,&quot;curved&quot;:1};treeFolding=1;treeMoving=1;fontSize=17;" vertex="1" parent="1">
          <mxGeometry x="-170" y="2120" width="100" height="100" as="geometry" />
        </mxCell>
        <mxCell id="qJLwlTwxIQTCb8-3PScf-124" value="Длинный хвост" style="ellipse;whiteSpace=wrap;html=1;align=center;newEdgeStyle={&quot;edgeStyle&quot;:&quot;entityRelationEdgeStyle&quot;,&quot;startArrow&quot;:&quot;none&quot;,&quot;endArrow&quot;:&quot;none&quot;,&quot;segment&quot;:10,&quot;curved&quot;:1};treeFolding=1;treeMoving=1;fontSize=17;" vertex="1" parent="1">
          <mxGeometry x="-330" y="1900" width="100" height="100" as="geometry" />
        </mxCell>
        <mxCell id="qJLwlTwxIQTCb8-3PScf-125" value="Коротко-шерстная" style="ellipse;whiteSpace=wrap;html=1;align=center;newEdgeStyle={&quot;edgeStyle&quot;:&quot;entityRelationEdgeStyle&quot;,&quot;startArrow&quot;:&quot;none&quot;,&quot;endArrow&quot;:&quot;none&quot;,&quot;segment&quot;:10,&quot;curved&quot;:1};treeFolding=1;treeMoving=1;fontSize=17;" vertex="1" parent="1">
          <mxGeometry x="400" y="1440" width="100" height="100" as="geometry" />
        </mxCell>
        <mxCell id="qJLwlTwxIQTCb8-3PScf-126" value="" style="endArrow=classic;html=1;entryX=0.5;entryY=1;entryDx=0;entryDy=0;exitX=0.5;exitY=0;exitDx=0;exitDy=0;" edge="1" target="qJLwlTwxIQTCb8-3PScf-125" parent="1">
          <mxGeometry relative="1" as="geometry">
            <mxPoint x="650" y="1719" as="sourcePoint" />
            <mxPoint x="820" y="1099" as="targetPoint" />
          </mxGeometry>
        </mxCell>
        <mxCell id="qJLwlTwxIQTCb8-3PScf-127" value="IS-A" style="edgeLabel;resizable=0;html=1;align=center;verticalAlign=middle;fontSize=16;" connectable="0" vertex="1" parent="qJLwlTwxIQTCb8-3PScf-126">
          <mxGeometry relative="1" as="geometry" />
        </mxCell>
        <mxCell id="qJLwlTwxIQTCb8-3PScf-128" value="" style="endArrow=classic;html=1;entryX=0.5;entryY=1;entryDx=0;entryDy=0;exitX=0.5;exitY=0;exitDx=0;exitDy=0;" edge="1" target="qJLwlTwxIQTCb8-3PScf-125" parent="1">
          <mxGeometry relative="1" as="geometry">
            <mxPoint x="530" y="1719" as="sourcePoint" />
            <mxPoint x="830" y="1109" as="targetPoint" />
          </mxGeometry>
        </mxCell>
        <mxCell id="qJLwlTwxIQTCb8-3PScf-129" value="IS-A" style="edgeLabel;resizable=0;html=1;align=center;verticalAlign=middle;fontSize=16;" connectable="0" vertex="1" parent="qJLwlTwxIQTCb8-3PScf-128">
          <mxGeometry relative="1" as="geometry" />
        </mxCell>
        <mxCell id="qJLwlTwxIQTCb8-3PScf-130" value="" style="endArrow=classic;html=1;exitX=0.5;exitY=0;exitDx=0;exitDy=0;entryX=0.5;entryY=1;entryDx=0;entryDy=0;" edge="1" target="qJLwlTwxIQTCb8-3PScf-125" parent="1">
          <mxGeometry relative="1" as="geometry">
            <mxPoint x="410" y="1719" as="sourcePoint" />
            <mxPoint x="610" y="1089" as="targetPoint" />
          </mxGeometry>
        </mxCell>
        <mxCell id="qJLwlTwxIQTCb8-3PScf-131" value="IS-A" style="edgeLabel;resizable=0;html=1;align=center;verticalAlign=middle;fontSize=16;" connectable="0" vertex="1" parent="qJLwlTwxIQTCb8-3PScf-130">
          <mxGeometry relative="1" as="geometry" />
        </mxCell>
        <mxCell id="qJLwlTwxIQTCb8-3PScf-132" value="" style="endArrow=classic;html=1;exitX=0.5;exitY=0;exitDx=0;exitDy=0;entryX=0.5;entryY=1;entryDx=0;entryDy=0;" edge="1" source="qJLwlTwxIQTCb8-3PScf-138" target="qJLwlTwxIQTCb8-3PScf-125" parent="1">
          <mxGeometry relative="1" as="geometry">
            <mxPoint x="550" y="1351" as="sourcePoint" />
            <mxPoint x="620" y="1099" as="targetPoint" />
          </mxGeometry>
        </mxCell>
        <mxCell id="qJLwlTwxIQTCb8-3PScf-133" value="IS-A" style="edgeLabel;resizable=0;html=1;align=center;verticalAlign=middle;fontSize=16;" connectable="0" vertex="1" parent="qJLwlTwxIQTCb8-3PScf-132">
          <mxGeometry relative="1" as="geometry" />
        </mxCell>
        <mxCell id="qJLwlTwxIQTCb8-3PScf-134" value="" style="endArrow=classic;html=1;exitX=0.5;exitY=0;exitDx=0;exitDy=0;entryX=0.5;entryY=1;entryDx=0;entryDy=0;" edge="1" target="qJLwlTwxIQTCb8-3PScf-125" parent="1" source="qJLwlTwxIQTCb8-3PScf-42">
          <mxGeometry relative="1" as="geometry">
            <mxPoint x="290" y="1719" as="sourcePoint" />
            <mxPoint x="325" y="1039" as="targetPoint" />
          </mxGeometry>
        </mxCell>
        <mxCell id="qJLwlTwxIQTCb8-3PScf-135" value="IS-A" style="edgeLabel;resizable=0;html=1;align=center;verticalAlign=middle;fontSize=16;" connectable="0" vertex="1" parent="qJLwlTwxIQTCb8-3PScf-134">
          <mxGeometry relative="1" as="geometry" />
        </mxCell>
        <mxCell id="qJLwlTwxIQTCb8-3PScf-136" value="" style="endArrow=classic;html=1;exitX=0.5;exitY=0;exitDx=0;exitDy=0;entryX=0.5;entryY=1;entryDx=0;entryDy=0;" edge="1" target="qJLwlTwxIQTCb8-3PScf-125" parent="1" source="qJLwlTwxIQTCb8-3PScf-41">
          <mxGeometry relative="1" as="geometry">
            <mxPoint x="170" y="1719" as="sourcePoint" />
            <mxPoint x="500" y="1089" as="targetPoint" />
          </mxGeometry>
        </mxCell>
        <mxCell id="qJLwlTwxIQTCb8-3PScf-137" value="IS-A" style="edgeLabel;resizable=0;html=1;align=center;verticalAlign=middle;fontSize=16;" connectable="0" vertex="1" parent="qJLwlTwxIQTCb8-3PScf-136">
          <mxGeometry relative="1" as="geometry" />
        </mxCell>
        <mxCell id="qJLwlTwxIQTCb8-3PScf-138" value="Бульдог" style="ellipse;whiteSpace=wrap;html=1;align=center;newEdgeStyle={&quot;edgeStyle&quot;:&quot;entityRelationEdgeStyle&quot;,&quot;startArrow&quot;:&quot;none&quot;,&quot;endArrow&quot;:&quot;none&quot;,&quot;segment&quot;:10,&quot;curved&quot;:1};treeFolding=1;treeMoving=1;fontSize=17;" vertex="1" parent="1">
          <mxGeometry y="1719" width="100" height="100" as="geometry" />
        </mxCell>
        <mxCell id="qJLwlTwxIQTCb8-3PScf-140" value="Светлый&lt;br&gt;окрас" style="ellipse;whiteSpace=wrap;html=1;align=center;newEdgeStyle={&quot;edgeStyle&quot;:&quot;entityRelationEdgeStyle&quot;,&quot;startArrow&quot;:&quot;none&quot;,&quot;endArrow&quot;:&quot;none&quot;,&quot;segment&quot;:10,&quot;curved&quot;:1};treeFolding=1;treeMoving=1;fontSize=17;" vertex="1" parent="1">
          <mxGeometry x="2068" y="3120" width="100" height="100" as="geometry" />
        </mxCell>
        <mxCell id="qJLwlTwxIQTCb8-3PScf-143" value="Смешанный&lt;br&gt;окрас" style="ellipse;whiteSpace=wrap;html=1;align=center;newEdgeStyle={&quot;edgeStyle&quot;:&quot;entityRelationEdgeStyle&quot;,&quot;startArrow&quot;:&quot;none&quot;,&quot;endArrow&quot;:&quot;none&quot;,&quot;segment&quot;:10,&quot;curved&quot;:1};treeFolding=1;treeMoving=1;fontSize=17;" vertex="1" parent="1">
          <mxGeometry x="2210" y="2880" width="100" height="100" as="geometry" />
        </mxCell>
        <mxCell id="qJLwlTwxIQTCb8-3PScf-144" value="Добрый&lt;br&gt;характер" style="ellipse;whiteSpace=wrap;html=1;align=center;newEdgeStyle={&quot;edgeStyle&quot;:&quot;entityRelationEdgeStyle&quot;,&quot;startArrow&quot;:&quot;none&quot;,&quot;endArrow&quot;:&quot;none&quot;,&quot;segment&quot;:10,&quot;curved&quot;:1};treeFolding=1;treeMoving=1;fontSize=17;" vertex="1" parent="1">
          <mxGeometry x="-330" y="2810" width="100" height="100" as="geometry" />
        </mxCell>
        <mxCell id="qJLwlTwxIQTCb8-3PScf-145" value="Своенравный&lt;br&gt;характер" style="ellipse;whiteSpace=wrap;html=1;align=center;newEdgeStyle={&quot;edgeStyle&quot;:&quot;entityRelationEdgeStyle&quot;,&quot;startArrow&quot;:&quot;none&quot;,&quot;endArrow&quot;:&quot;none&quot;,&quot;segment&quot;:10,&quot;curved&quot;:1};treeFolding=1;treeMoving=1;fontSize=17;" vertex="1" parent="1">
          <mxGeometry x="-170" y="2810" width="100" height="100" as="geometry" />
        </mxCell>
        <mxCell id="qJLwlTwxIQTCb8-3PScf-146" value="Вес менее 30 кг" style="ellipse;whiteSpace=wrap;html=1;align=center;newEdgeStyle={&quot;edgeStyle&quot;:&quot;entityRelationEdgeStyle&quot;,&quot;startArrow&quot;:&quot;none&quot;,&quot;endArrow&quot;:&quot;none&quot;,&quot;segment&quot;:10,&quot;curved&quot;:1};treeFolding=1;treeMoving=1;fontSize=17;" vertex="1" parent="1">
          <mxGeometry x="-330" y="3040" width="100" height="100" as="geometry" />
        </mxCell>
        <mxCell id="qJLwlTwxIQTCb8-3PScf-147" value="Вес более 30 кг" style="ellipse;whiteSpace=wrap;html=1;align=center;newEdgeStyle={&quot;edgeStyle&quot;:&quot;entityRelationEdgeStyle&quot;,&quot;startArrow&quot;:&quot;none&quot;,&quot;endArrow&quot;:&quot;none&quot;,&quot;segment&quot;:10,&quot;curved&quot;:1};treeFolding=1;treeMoving=1;fontSize=17;" vertex="1" parent="1">
          <mxGeometry x="-170" y="3040" width="100" height="100" as="geometry" />
        </mxCell>
        <mxCell id="qJLwlTwxIQTCb8-3PScf-148" value="Рост собаки:&lt;br&gt;менее 70 см" style="ellipse;whiteSpace=wrap;html=1;align=center;newEdgeStyle={&quot;edgeStyle&quot;:&quot;entityRelationEdgeStyle&quot;,&quot;startArrow&quot;:&quot;none&quot;,&quot;endArrow&quot;:&quot;none&quot;,&quot;segment&quot;:10,&quot;curved&quot;:1};treeFolding=1;treeMoving=1;fontSize=17;" vertex="1" parent="1">
          <mxGeometry x="2068" y="2480" width="100" height="100" as="geometry" />
        </mxCell>
        <mxCell id="qJLwlTwxIQTCb8-3PScf-181" value="" style="endArrow=classic;html=1;exitX=0.5;exitY=1;exitDx=0;exitDy=0;entryX=0.5;entryY=1;entryDx=0;entryDy=0;" edge="1" parent="1" source="qJLwlTwxIQTCb8-3PScf-138" target="qJLwlTwxIQTCb8-3PScf-121">
          <mxGeometry relative="1" as="geometry">
            <mxPoint x="150" y="1880" as="sourcePoint" />
            <mxPoint x="-191" y="1891" as="targetPoint" />
            <Array as="points">
              <mxPoint x="50" y="2040" />
              <mxPoint x="-140" y="2040" />
            </Array>
          </mxGeometry>
        </mxCell>
        <mxCell id="qJLwlTwxIQTCb8-3PScf-182" value="&lt;font style=&quot;font-size: 17px;&quot;&gt;has-tail&lt;/font&gt;" style="edgeLabel;resizable=0;html=1;align=center;verticalAlign=middle;" connectable="0" vertex="1" parent="qJLwlTwxIQTCb8-3PScf-181">
          <mxGeometry relative="1" as="geometry">
            <mxPoint x="-145" as="offset" />
          </mxGeometry>
        </mxCell>
        <mxCell id="qJLwlTwxIQTCb8-3PScf-183" value="" style="endArrow=classic;html=1;exitX=0.5;exitY=1;exitDx=0;exitDy=0;entryX=0.5;entryY=1;entryDx=0;entryDy=0;" edge="1" parent="1" source="qJLwlTwxIQTCb8-3PScf-41" target="qJLwlTwxIQTCb8-3PScf-124">
          <mxGeometry relative="1" as="geometry">
            <mxPoint x="60" y="1829" as="sourcePoint" />
            <mxPoint x="-220" y="2010" as="targetPoint" />
            <Array as="points">
              <mxPoint x="160" y="2060" />
              <mxPoint x="-280" y="2060" />
            </Array>
          </mxGeometry>
        </mxCell>
        <mxCell id="qJLwlTwxIQTCb8-3PScf-184" value="&lt;font style=&quot;font-size: 17px;&quot;&gt;has-tail&lt;/font&gt;" style="edgeLabel;resizable=0;html=1;align=center;verticalAlign=middle;" connectable="0" vertex="1" parent="qJLwlTwxIQTCb8-3PScf-183">
          <mxGeometry relative="1" as="geometry">
            <mxPoint x="-51" as="offset" />
          </mxGeometry>
        </mxCell>
        <mxCell id="qJLwlTwxIQTCb8-3PScf-185" value="" style="endArrow=classic;html=1;exitX=0.5;exitY=1;exitDx=0;exitDy=0;entryX=0.5;entryY=1;entryDx=0;entryDy=0;" edge="1" parent="1" source="qJLwlTwxIQTCb8-3PScf-42" target="qJLwlTwxIQTCb8-3PScf-124">
          <mxGeometry relative="1" as="geometry">
            <mxPoint x="170" y="1829" as="sourcePoint" />
            <mxPoint x="-410" y="2010" as="targetPoint" />
            <Array as="points">
              <mxPoint x="280" y="2080" />
              <mxPoint x="-280" y="2080" />
            </Array>
          </mxGeometry>
        </mxCell>
        <mxCell id="qJLwlTwxIQTCb8-3PScf-186" value="&lt;font style=&quot;font-size: 17px;&quot;&gt;has-tail&lt;/font&gt;" style="edgeLabel;resizable=0;html=1;align=center;verticalAlign=middle;" connectable="0" vertex="1" parent="qJLwlTwxIQTCb8-3PScf-185">
          <mxGeometry relative="1" as="geometry">
            <mxPoint x="-1" as="offset" />
          </mxGeometry>
        </mxCell>
        <mxCell id="qJLwlTwxIQTCb8-3PScf-187" value="" style="endArrow=classic;html=1;exitX=0.5;exitY=1;exitDx=0;exitDy=0;entryX=0.5;entryY=1;entryDx=0;entryDy=0;" edge="1" parent="1" source="qJLwlTwxIQTCb8-3PScf-43" target="qJLwlTwxIQTCb8-3PScf-124">
          <mxGeometry relative="1" as="geometry">
            <mxPoint x="290" y="1829" as="sourcePoint" />
            <mxPoint x="-410" y="2010" as="targetPoint" />
            <Array as="points">
              <mxPoint x="410" y="2100" />
              <mxPoint x="-280" y="2100" />
            </Array>
          </mxGeometry>
        </mxCell>
        <mxCell id="qJLwlTwxIQTCb8-3PScf-188" value="&lt;font style=&quot;font-size: 17px;&quot;&gt;has-tail&lt;/font&gt;" style="edgeLabel;resizable=0;html=1;align=center;verticalAlign=middle;" connectable="0" vertex="1" parent="qJLwlTwxIQTCb8-3PScf-187">
          <mxGeometry relative="1" as="geometry">
            <mxPoint x="65" as="offset" />
          </mxGeometry>
        </mxCell>
        <mxCell id="qJLwlTwxIQTCb8-3PScf-189" value="" style="endArrow=classic;html=1;entryX=0.5;entryY=1;entryDx=0;entryDy=0;exitX=0.5;exitY=1;exitDx=0;exitDy=0;" edge="1" parent="1" source="qJLwlTwxIQTCb8-3PScf-138" target="qJLwlTwxIQTCb8-3PScf-47">
          <mxGeometry relative="1" as="geometry">
            <mxPoint x="80" y="1840" as="sourcePoint" />
            <mxPoint x="-220" y="2010" as="targetPoint" />
            <Array as="points">
              <mxPoint x="50" y="2460" />
              <mxPoint x="-120" y="2460" />
            </Array>
          </mxGeometry>
        </mxCell>
        <mxCell id="qJLwlTwxIQTCb8-3PScf-190" value="&lt;font style=&quot;font-size: 17px;&quot;&gt;has-height&lt;/font&gt;" style="edgeLabel;resizable=0;html=1;align=center;verticalAlign=middle;" connectable="0" vertex="1" parent="qJLwlTwxIQTCb8-3PScf-189">
          <mxGeometry relative="1" as="geometry">
            <mxPoint x="-100" y="221" as="offset" />
          </mxGeometry>
        </mxCell>
        <mxCell id="qJLwlTwxIQTCb8-3PScf-191" value="" style="endArrow=classic;html=1;entryX=0.5;entryY=1;entryDx=0;entryDy=0;exitX=0.5;exitY=1;exitDx=0;exitDy=0;" edge="1" parent="1" source="qJLwlTwxIQTCb8-3PScf-41" target="qJLwlTwxIQTCb8-3PScf-47">
          <mxGeometry relative="1" as="geometry">
            <mxPoint x="70" y="1820" as="sourcePoint" />
            <mxPoint x="-420" y="2430" as="targetPoint" />
            <Array as="points">
              <mxPoint x="160" y="2480" />
              <mxPoint x="-120" y="2480" />
            </Array>
          </mxGeometry>
        </mxCell>
        <mxCell id="qJLwlTwxIQTCb8-3PScf-192" value="&lt;font style=&quot;font-size: 17px;&quot;&gt;has-height&lt;/font&gt;" style="edgeLabel;resizable=0;html=1;align=center;verticalAlign=middle;" connectable="0" vertex="1" parent="qJLwlTwxIQTCb8-3PScf-191">
          <mxGeometry relative="1" as="geometry">
            <mxPoint x="-120" y="165" as="offset" />
          </mxGeometry>
        </mxCell>
        <mxCell id="qJLwlTwxIQTCb8-3PScf-193" value="" style="endArrow=classic;html=1;entryX=0.5;entryY=1;entryDx=0;entryDy=0;exitX=0.5;exitY=1;exitDx=0;exitDy=0;" edge="1" parent="1" source="qJLwlTwxIQTCb8-3PScf-42" target="qJLwlTwxIQTCb8-3PScf-47">
          <mxGeometry relative="1" as="geometry">
            <mxPoint x="170" y="1829" as="sourcePoint" />
            <mxPoint x="-420" y="2430" as="targetPoint" />
            <Array as="points">
              <mxPoint x="280" y="2500" />
              <mxPoint x="-120" y="2500" />
            </Array>
          </mxGeometry>
        </mxCell>
        <mxCell id="qJLwlTwxIQTCb8-3PScf-194" value="&lt;font style=&quot;font-size: 17px;&quot;&gt;has-height&lt;/font&gt;" style="edgeLabel;resizable=0;html=1;align=center;verticalAlign=middle;" connectable="0" vertex="1" parent="qJLwlTwxIQTCb8-3PScf-193">
          <mxGeometry relative="1" as="geometry">
            <mxPoint x="-120" y="105" as="offset" />
          </mxGeometry>
        </mxCell>
        <mxCell id="qJLwlTwxIQTCb8-3PScf-195" value="" style="endArrow=classic;html=1;entryX=0.5;entryY=1;entryDx=0;entryDy=0;exitX=0.5;exitY=1;exitDx=0;exitDy=0;" edge="1" parent="1" source="qJLwlTwxIQTCb8-3PScf-43" target="qJLwlTwxIQTCb8-3PScf-47">
          <mxGeometry relative="1" as="geometry">
            <mxPoint x="290" y="1829" as="sourcePoint" />
            <mxPoint x="-420" y="2430" as="targetPoint" />
            <Array as="points">
              <mxPoint x="410" y="2520" />
              <mxPoint x="-120" y="2520" />
            </Array>
          </mxGeometry>
        </mxCell>
        <mxCell id="qJLwlTwxIQTCb8-3PScf-196" value="&lt;font style=&quot;font-size: 17px;&quot;&gt;has-height&lt;/font&gt;" style="edgeLabel;resizable=0;html=1;align=center;verticalAlign=middle;" connectable="0" vertex="1" parent="qJLwlTwxIQTCb8-3PScf-195">
          <mxGeometry relative="1" as="geometry">
            <mxPoint x="-70" y="41" as="offset" />
          </mxGeometry>
        </mxCell>
        <mxCell id="qJLwlTwxIQTCb8-3PScf-201" value="" style="endArrow=classic;html=1;exitX=0.5;exitY=1;exitDx=0;exitDy=0;entryX=0.5;entryY=1;entryDx=0;entryDy=0;" edge="1" parent="1" source="qJLwlTwxIQTCb8-3PScf-41" target="qJLwlTwxIQTCb8-3PScf-52">
          <mxGeometry relative="1" as="geometry">
            <mxPoint x="670" y="1880" as="sourcePoint" />
            <mxPoint x="1320" y="2391" as="targetPoint" />
            <Array as="points">
              <mxPoint x="160" y="2360" />
              <mxPoint x="2260" y="2360" />
            </Array>
          </mxGeometry>
        </mxCell>
        <mxCell id="qJLwlTwxIQTCb8-3PScf-202" value="&lt;font style=&quot;font-size: 17px;&quot;&gt;has-ears&lt;/font&gt;" style="edgeLabel;resizable=0;html=1;align=center;verticalAlign=middle;" connectable="0" vertex="1" parent="qJLwlTwxIQTCb8-3PScf-201">
          <mxGeometry relative="1" as="geometry">
            <mxPoint x="326" y="5" as="offset" />
          </mxGeometry>
        </mxCell>
        <mxCell id="qJLwlTwxIQTCb8-3PScf-203" value="" style="endArrow=classic;html=1;exitX=0.5;exitY=1;exitDx=0;exitDy=0;entryX=0.5;entryY=1;entryDx=0;entryDy=0;" edge="1" parent="1" source="qJLwlTwxIQTCb8-3PScf-42" target="qJLwlTwxIQTCb8-3PScf-54">
          <mxGeometry relative="1" as="geometry">
            <mxPoint x="170" y="1829" as="sourcePoint" />
            <mxPoint x="2340" y="2230" as="targetPoint" />
            <Array as="points">
              <mxPoint x="280" y="2240" />
              <mxPoint x="2130" y="2240" />
            </Array>
          </mxGeometry>
        </mxCell>
        <mxCell id="qJLwlTwxIQTCb8-3PScf-204" value="&lt;font style=&quot;font-size: 17px;&quot;&gt;has-ears&lt;/font&gt;" style="edgeLabel;resizable=0;html=1;align=center;verticalAlign=middle;" connectable="0" vertex="1" parent="qJLwlTwxIQTCb8-3PScf-203">
          <mxGeometry relative="1" as="geometry">
            <mxPoint x="186" as="offset" />
          </mxGeometry>
        </mxCell>
        <mxCell id="qJLwlTwxIQTCb8-3PScf-205" value="" style="endArrow=classic;html=1;exitX=0.5;exitY=1;exitDx=0;exitDy=0;entryX=0.5;entryY=1;entryDx=0;entryDy=0;" edge="1" parent="1" source="qJLwlTwxIQTCb8-3PScf-43" target="qJLwlTwxIQTCb8-3PScf-54">
          <mxGeometry relative="1" as="geometry">
            <mxPoint x="180" y="1839" as="sourcePoint" />
            <mxPoint x="2350" y="2240" as="targetPoint" />
            <Array as="points">
              <mxPoint x="410" y="2260" />
              <mxPoint x="2130" y="2260" />
            </Array>
          </mxGeometry>
        </mxCell>
        <mxCell id="qJLwlTwxIQTCb8-3PScf-206" value="&lt;font style=&quot;font-size: 17px;&quot;&gt;has-ears&lt;/font&gt;" style="edgeLabel;resizable=0;html=1;align=center;verticalAlign=middle;" connectable="0" vertex="1" parent="qJLwlTwxIQTCb8-3PScf-205">
          <mxGeometry relative="1" as="geometry">
            <mxPoint x="241" y="5" as="offset" />
          </mxGeometry>
        </mxCell>
        <mxCell id="qJLwlTwxIQTCb8-3PScf-207" value="" style="endArrow=classic;html=1;exitX=0.5;exitY=1;exitDx=0;exitDy=0;entryX=0.5;entryY=1;entryDx=0;entryDy=0;" edge="1" parent="1" source="qJLwlTwxIQTCb8-3PScf-42" target="qJLwlTwxIQTCb8-3PScf-123">
          <mxGeometry relative="1" as="geometry">
            <mxPoint x="290" y="1829" as="sourcePoint" />
            <mxPoint x="-410" y="2010" as="targetPoint" />
            <Array as="points">
              <mxPoint x="280" y="2250" />
              <mxPoint x="-120" y="2250" />
            </Array>
          </mxGeometry>
        </mxCell>
        <mxCell id="qJLwlTwxIQTCb8-3PScf-208" value="&lt;font style=&quot;font-size: 17px;&quot;&gt;has-body&lt;/font&gt;" style="edgeLabel;resizable=0;html=1;align=center;verticalAlign=middle;" connectable="0" vertex="1" parent="qJLwlTwxIQTCb8-3PScf-207">
          <mxGeometry relative="1" as="geometry">
            <mxPoint x="-310" as="offset" />
          </mxGeometry>
        </mxCell>
        <mxCell id="qJLwlTwxIQTCb8-3PScf-209" value="" style="endArrow=classic;html=1;exitX=0.5;exitY=1;exitDx=0;exitDy=0;entryX=0.5;entryY=1;entryDx=0;entryDy=0;" edge="1" parent="1" source="qJLwlTwxIQTCb8-3PScf-43" target="qJLwlTwxIQTCb8-3PScf-122">
          <mxGeometry relative="1" as="geometry">
            <mxPoint x="290" y="1829" as="sourcePoint" />
            <mxPoint x="-220" y="2230" as="targetPoint" />
            <Array as="points">
              <mxPoint x="410" y="2280" />
              <mxPoint x="-280" y="2280" />
            </Array>
          </mxGeometry>
        </mxCell>
        <mxCell id="qJLwlTwxIQTCb8-3PScf-210" value="&lt;font style=&quot;font-size: 17px;&quot;&gt;has-body&lt;/font&gt;" style="edgeLabel;resizable=0;html=1;align=center;verticalAlign=middle;" connectable="0" vertex="1" parent="qJLwlTwxIQTCb8-3PScf-209">
          <mxGeometry relative="1" as="geometry">
            <mxPoint x="-435" as="offset" />
          </mxGeometry>
        </mxCell>
        <mxCell id="qJLwlTwxIQTCb8-3PScf-214" value="" style="endArrow=classic;html=1;entryX=0.5;entryY=1;entryDx=0;entryDy=0;exitX=0.5;exitY=1;exitDx=0;exitDy=0;" edge="1" parent="1" source="qJLwlTwxIQTCb8-3PScf-44" target="qJLwlTwxIQTCb8-3PScf-48">
          <mxGeometry relative="1" as="geometry">
            <mxPoint x="420" y="1829" as="sourcePoint" />
            <mxPoint x="-210" y="2440" as="targetPoint" />
            <Array as="points">
              <mxPoint x="530" y="2620" />
              <mxPoint x="-280" y="2620" />
            </Array>
          </mxGeometry>
        </mxCell>
        <mxCell id="qJLwlTwxIQTCb8-3PScf-215" value="&lt;font style=&quot;font-size: 17px;&quot;&gt;has-height&lt;/font&gt;" style="edgeLabel;resizable=0;html=1;align=center;verticalAlign=middle;" connectable="0" vertex="1" parent="qJLwlTwxIQTCb8-3PScf-214">
          <mxGeometry relative="1" as="geometry">
            <mxPoint x="-605" as="offset" />
          </mxGeometry>
        </mxCell>
        <mxCell id="qJLwlTwxIQTCb8-3PScf-216" value="" style="endArrow=classic;html=1;entryX=0.5;entryY=1;entryDx=0;entryDy=0;exitX=0.5;exitY=1;exitDx=0;exitDy=0;" edge="1" parent="1" source="qJLwlTwxIQTCb8-3PScf-45" target="qJLwlTwxIQTCb8-3PScf-48">
          <mxGeometry relative="1" as="geometry">
            <mxPoint x="540" y="1829" as="sourcePoint" />
            <mxPoint x="-430" y="2448" as="targetPoint" />
            <Array as="points">
              <mxPoint x="650" y="2640" />
              <mxPoint x="-280" y="2640" />
            </Array>
          </mxGeometry>
        </mxCell>
        <mxCell id="qJLwlTwxIQTCb8-3PScf-217" value="&lt;font style=&quot;font-size: 17px;&quot;&gt;has-height&lt;/font&gt;" style="edgeLabel;resizable=0;html=1;align=center;verticalAlign=middle;" connectable="0" vertex="1" parent="qJLwlTwxIQTCb8-3PScf-216">
          <mxGeometry relative="1" as="geometry">
            <mxPoint x="-535" as="offset" />
          </mxGeometry>
        </mxCell>
        <mxCell id="qJLwlTwxIQTCb8-3PScf-218" value="" style="endArrow=classic;html=1;entryX=0.5;entryY=1;entryDx=0;entryDy=0;" edge="1" parent="1" source="qJLwlTwxIQTCb8-3PScf-44" target="qJLwlTwxIQTCb8-3PScf-50">
          <mxGeometry relative="1" as="geometry">
            <mxPoint x="540" y="1829" as="sourcePoint" />
            <mxPoint x="1270" y="2420" as="targetPoint" />
            <Array as="points">
              <mxPoint x="530" y="2060" />
              <mxPoint x="2260" y="2060" />
            </Array>
          </mxGeometry>
        </mxCell>
        <mxCell id="qJLwlTwxIQTCb8-3PScf-219" value="&lt;font style=&quot;font-size: 17px;&quot;&gt;has-weight&lt;/font&gt;" style="edgeLabel;resizable=0;html=1;align=center;verticalAlign=middle;" connectable="0" vertex="1" parent="qJLwlTwxIQTCb8-3PScf-218">
          <mxGeometry relative="1" as="geometry">
            <mxPoint x="-139" as="offset" />
          </mxGeometry>
        </mxCell>
        <mxCell id="qJLwlTwxIQTCb8-3PScf-220" value="" style="endArrow=classic;html=1;entryX=0.5;entryY=1;entryDx=0;entryDy=0;exitX=0.5;exitY=1;exitDx=0;exitDy=0;" edge="1" parent="1" source="qJLwlTwxIQTCb8-3PScf-45" target="qJLwlTwxIQTCb8-3PScf-51">
          <mxGeometry relative="1" as="geometry">
            <mxPoint x="540" y="1829" as="sourcePoint" />
            <mxPoint x="2320" y="1990" as="targetPoint" />
            <Array as="points">
              <mxPoint x="650" y="2040" />
              <mxPoint x="2130" y="2040" />
            </Array>
          </mxGeometry>
        </mxCell>
        <mxCell id="qJLwlTwxIQTCb8-3PScf-221" value="&lt;font style=&quot;font-size: 17px;&quot;&gt;has-weight&lt;/font&gt;" style="edgeLabel;resizable=0;html=1;align=center;verticalAlign=middle;" connectable="0" vertex="1" parent="qJLwlTwxIQTCb8-3PScf-220">
          <mxGeometry relative="1" as="geometry">
            <mxPoint x="-249" as="offset" />
          </mxGeometry>
        </mxCell>
        <mxCell id="qJLwlTwxIQTCb8-3PScf-222" value="" style="endArrow=classic;html=1;exitX=0.5;exitY=1;exitDx=0;exitDy=0;entryX=0.5;entryY=1;entryDx=0;entryDy=0;" edge="1" parent="1" source="qJLwlTwxIQTCb8-3PScf-46" target="qJLwlTwxIQTCb8-3PScf-52">
          <mxGeometry relative="1" as="geometry">
            <mxPoint x="170" y="1829" as="sourcePoint" />
            <mxPoint x="2340" y="2230" as="targetPoint" />
            <Array as="points">
              <mxPoint x="770" y="2380" />
              <mxPoint x="2260" y="2380" />
            </Array>
          </mxGeometry>
        </mxCell>
        <mxCell id="qJLwlTwxIQTCb8-3PScf-223" value="&lt;font style=&quot;font-size: 17px;&quot;&gt;has-ears&lt;/font&gt;" style="edgeLabel;resizable=0;html=1;align=center;verticalAlign=middle;" connectable="0" vertex="1" parent="qJLwlTwxIQTCb8-3PScf-222">
          <mxGeometry relative="1" as="geometry">
            <mxPoint x="119" as="offset" />
          </mxGeometry>
        </mxCell>
        <mxCell id="qJLwlTwxIQTCb8-3PScf-224" value="" style="endArrow=classic;html=1;entryX=0.5;entryY=1;entryDx=0;entryDy=0;exitX=0.5;exitY=1;exitDx=0;exitDy=0;" edge="1" parent="1" source="qJLwlTwxIQTCb8-3PScf-46" target="qJLwlTwxIQTCb8-3PScf-47">
          <mxGeometry relative="1" as="geometry">
            <mxPoint x="420" y="1829" as="sourcePoint" />
            <mxPoint x="-210" y="2440" as="targetPoint" />
            <Array as="points">
              <mxPoint x="770" y="2540" />
              <mxPoint x="-120" y="2540" />
            </Array>
          </mxGeometry>
        </mxCell>
        <mxCell id="qJLwlTwxIQTCb8-3PScf-225" value="&lt;font style=&quot;font-size: 17px;&quot;&gt;has-height&lt;/font&gt;" style="edgeLabel;resizable=0;html=1;align=center;verticalAlign=middle;" connectable="0" vertex="1" parent="qJLwlTwxIQTCb8-3PScf-224">
          <mxGeometry relative="1" as="geometry">
            <mxPoint x="82" as="offset" />
          </mxGeometry>
        </mxCell>
        <mxCell id="qJLwlTwxIQTCb8-3PScf-226" value="" style="endArrow=classic;html=1;exitX=0.5;exitY=1;exitDx=0;exitDy=0;entryX=0.5;entryY=1;entryDx=0;entryDy=0;" edge="1" parent="1" source="qJLwlTwxIQTCb8-3PScf-46" target="qJLwlTwxIQTCb8-3PScf-144">
          <mxGeometry relative="1" as="geometry">
            <mxPoint x="660" y="1829" as="sourcePoint" />
            <mxPoint x="-440" y="2920" as="targetPoint" />
            <Array as="points">
              <mxPoint x="770" y="3000" />
              <mxPoint x="-280" y="3000" />
            </Array>
          </mxGeometry>
        </mxCell>
        <mxCell id="qJLwlTwxIQTCb8-3PScf-227" value="&lt;font style=&quot;font-size: 17px;&quot;&gt;has-character&lt;/font&gt;" style="edgeLabel;resizable=0;html=1;align=center;verticalAlign=middle;" connectable="0" vertex="1" parent="qJLwlTwxIQTCb8-3PScf-226">
          <mxGeometry relative="1" as="geometry">
            <mxPoint x="-364" as="offset" />
          </mxGeometry>
        </mxCell>
        <mxCell id="qJLwlTwxIQTCb8-3PScf-228" value="Однородный&lt;br&gt;окрас" style="ellipse;whiteSpace=wrap;html=1;align=center;newEdgeStyle={&quot;edgeStyle&quot;:&quot;entityRelationEdgeStyle&quot;,&quot;startArrow&quot;:&quot;none&quot;,&quot;endArrow&quot;:&quot;none&quot;,&quot;segment&quot;:10,&quot;curved&quot;:1};treeFolding=1;treeMoving=1;fontSize=17;" vertex="1" parent="1">
          <mxGeometry x="2068" y="2880" width="100" height="100" as="geometry" />
        </mxCell>
        <mxCell id="qJLwlTwxIQTCb8-3PScf-229" value="Тёмный&lt;br&gt;окрас" style="ellipse;whiteSpace=wrap;html=1;align=center;newEdgeStyle={&quot;edgeStyle&quot;:&quot;entityRelationEdgeStyle&quot;,&quot;startArrow&quot;:&quot;none&quot;,&quot;endArrow&quot;:&quot;none&quot;,&quot;segment&quot;:10,&quot;curved&quot;:1};treeFolding=1;treeMoving=1;fontSize=17;" vertex="1" parent="1">
          <mxGeometry x="2210" y="3120" width="100" height="100" as="geometry" />
        </mxCell>
        <mxCell id="qJLwlTwxIQTCb8-3PScf-230" value="Рост собаки:&lt;br&gt;более 70 см" style="ellipse;whiteSpace=wrap;html=1;align=center;newEdgeStyle={&quot;edgeStyle&quot;:&quot;entityRelationEdgeStyle&quot;,&quot;startArrow&quot;:&quot;none&quot;,&quot;endArrow&quot;:&quot;none&quot;,&quot;segment&quot;:10,&quot;curved&quot;:1};treeFolding=1;treeMoving=1;fontSize=17;" vertex="1" parent="1">
          <mxGeometry x="2210" y="2480" width="100" height="100" as="geometry" />
        </mxCell>
        <mxCell id="qJLwlTwxIQTCb8-3PScf-231" value="" style="endArrow=classic;html=1;exitX=0.5;exitY=1;exitDx=0;exitDy=0;entryX=0.5;entryY=1;entryDx=0;entryDy=0;" edge="1" parent="1" source="qJLwlTwxIQTCb8-3PScf-31" target="qJLwlTwxIQTCb8-3PScf-144">
          <mxGeometry relative="1" as="geometry">
            <mxPoint x="780" y="1832" as="sourcePoint" />
            <mxPoint x="-430" y="2910" as="targetPoint" />
            <Array as="points">
              <mxPoint x="1130" y="3020" />
              <mxPoint x="-280" y="3020" />
            </Array>
          </mxGeometry>
        </mxCell>
        <mxCell id="qJLwlTwxIQTCb8-3PScf-232" value="&lt;font style=&quot;font-size: 17px;&quot;&gt;has-character&lt;/font&gt;" style="edgeLabel;resizable=0;html=1;align=center;verticalAlign=middle;" connectable="0" vertex="1" parent="qJLwlTwxIQTCb8-3PScf-231">
          <mxGeometry relative="1" as="geometry">
            <mxPoint x="-354" as="offset" />
          </mxGeometry>
        </mxCell>
        <mxCell id="qJLwlTwxIQTCb8-3PScf-233" value="" style="endArrow=classic;html=1;exitX=0.5;exitY=1;exitDx=0;exitDy=0;entryX=0.5;entryY=1;entryDx=0;entryDy=0;" edge="1" parent="1" source="qJLwlTwxIQTCb8-3PScf-22" target="qJLwlTwxIQTCb8-3PScf-145">
          <mxGeometry relative="1" as="geometry">
            <mxPoint x="1140" y="1832" as="sourcePoint" />
            <mxPoint x="-430" y="2910" as="targetPoint" />
            <Array as="points">
              <mxPoint x="890" y="2940" />
              <mxPoint x="-120" y="2940" />
            </Array>
          </mxGeometry>
        </mxCell>
        <mxCell id="qJLwlTwxIQTCb8-3PScf-234" value="&lt;font style=&quot;font-size: 17px;&quot;&gt;has-character&lt;/font&gt;" style="edgeLabel;resizable=0;html=1;align=center;verticalAlign=middle;" connectable="0" vertex="1" parent="qJLwlTwxIQTCb8-3PScf-233">
          <mxGeometry relative="1" as="geometry">
            <mxPoint x="-860" y="38" as="offset" />
          </mxGeometry>
        </mxCell>
        <mxCell id="qJLwlTwxIQTCb8-3PScf-235" value="" style="endArrow=classic;html=1;exitX=0.5;exitY=1;exitDx=0;exitDy=0;entryX=0.5;entryY=1;entryDx=0;entryDy=0;" edge="1" parent="1" source="qJLwlTwxIQTCb8-3PScf-30" target="qJLwlTwxIQTCb8-3PScf-145">
          <mxGeometry relative="1" as="geometry">
            <mxPoint x="900" y="1832" as="sourcePoint" />
            <mxPoint x="-240" y="2920" as="targetPoint" />
            <Array as="points">
              <mxPoint x="1010" y="2960" />
              <mxPoint x="-120" y="2960" />
            </Array>
          </mxGeometry>
        </mxCell>
        <mxCell id="qJLwlTwxIQTCb8-3PScf-236" value="&lt;font style=&quot;font-size: 17px;&quot;&gt;has-character&lt;/font&gt;" style="edgeLabel;resizable=0;html=1;align=center;verticalAlign=middle;" connectable="0" vertex="1" parent="qJLwlTwxIQTCb8-3PScf-235">
          <mxGeometry relative="1" as="geometry">
            <mxPoint x="-790" as="offset" />
          </mxGeometry>
        </mxCell>
        <mxCell id="qJLwlTwxIQTCb8-3PScf-237" value="" style="endArrow=classic;html=1;entryX=0.5;entryY=1;entryDx=0;entryDy=0;exitX=0.5;exitY=1;exitDx=0;exitDy=0;" edge="1" parent="1" source="qJLwlTwxIQTCb8-3PScf-22" target="qJLwlTwxIQTCb8-3PScf-47">
          <mxGeometry relative="1" as="geometry">
            <mxPoint x="780" y="1832" as="sourcePoint" />
            <mxPoint x="-210" y="2440" as="targetPoint" />
            <Array as="points">
              <mxPoint x="890" y="2560" />
              <mxPoint x="-120" y="2560" />
            </Array>
          </mxGeometry>
        </mxCell>
        <mxCell id="qJLwlTwxIQTCb8-3PScf-238" value="&lt;font style=&quot;font-size: 17px;&quot;&gt;has-height&lt;/font&gt;" style="edgeLabel;resizable=0;html=1;align=center;verticalAlign=middle;" connectable="0" vertex="1" parent="qJLwlTwxIQTCb8-3PScf-237">
          <mxGeometry relative="1" as="geometry">
            <mxPoint x="132" as="offset" />
          </mxGeometry>
        </mxCell>
        <mxCell id="qJLwlTwxIQTCb8-3PScf-239" value="" style="endArrow=classic;html=1;entryX=0.5;entryY=1;entryDx=0;entryDy=0;exitX=0.5;exitY=1;exitDx=0;exitDy=0;" edge="1" parent="1" source="qJLwlTwxIQTCb8-3PScf-30" target="qJLwlTwxIQTCb8-3PScf-47">
          <mxGeometry relative="1" as="geometry">
            <mxPoint x="790" y="1842" as="sourcePoint" />
            <mxPoint x="-200" y="2450" as="targetPoint" />
            <Array as="points">
              <mxPoint x="1010" y="2580" />
              <mxPoint x="-120" y="2580" />
            </Array>
          </mxGeometry>
        </mxCell>
        <mxCell id="qJLwlTwxIQTCb8-3PScf-240" value="&lt;font style=&quot;font-size: 17px;&quot;&gt;has-height&lt;/font&gt;" style="edgeLabel;resizable=0;html=1;align=center;verticalAlign=middle;" connectable="0" vertex="1" parent="qJLwlTwxIQTCb8-3PScf-239">
          <mxGeometry relative="1" as="geometry">
            <mxPoint x="192" as="offset" />
          </mxGeometry>
        </mxCell>
        <mxCell id="qJLwlTwxIQTCb8-3PScf-241" value="" style="endArrow=classic;html=1;entryX=0.5;entryY=1;entryDx=0;entryDy=0;exitX=0.5;exitY=1;exitDx=0;exitDy=0;" edge="1" parent="1" source="qJLwlTwxIQTCb8-3PScf-31" target="qJLwlTwxIQTCb8-3PScf-47">
          <mxGeometry relative="1" as="geometry">
            <mxPoint x="800" y="1852" as="sourcePoint" />
            <mxPoint x="-190" y="2460" as="targetPoint" />
            <Array as="points">
              <mxPoint x="1130" y="2600" />
              <mxPoint x="-120" y="2600" />
            </Array>
          </mxGeometry>
        </mxCell>
        <mxCell id="qJLwlTwxIQTCb8-3PScf-242" value="&lt;font style=&quot;font-size: 17px;&quot;&gt;has-height&lt;/font&gt;" style="edgeLabel;resizable=0;html=1;align=center;verticalAlign=middle;" connectable="0" vertex="1" parent="qJLwlTwxIQTCb8-3PScf-241">
          <mxGeometry relative="1" as="geometry">
            <mxPoint x="262" as="offset" />
          </mxGeometry>
        </mxCell>
        <mxCell id="qJLwlTwxIQTCb8-3PScf-243" value="" style="endArrow=classic;html=1;exitX=0.5;exitY=1;exitDx=0;exitDy=0;entryX=0.5;entryY=1;entryDx=0;entryDy=0;" edge="1" parent="1" source="qJLwlTwxIQTCb8-3PScf-30" target="qJLwlTwxIQTCb8-3PScf-52">
          <mxGeometry relative="1" as="geometry">
            <mxPoint x="780" y="1832" as="sourcePoint" />
            <mxPoint x="2340" y="2230" as="targetPoint" />
            <Array as="points">
              <mxPoint x="1010" y="2400" />
              <mxPoint x="2260" y="2400" />
            </Array>
          </mxGeometry>
        </mxCell>
        <mxCell id="qJLwlTwxIQTCb8-3PScf-244" value="&lt;font style=&quot;font-size: 17px;&quot;&gt;has-ears&lt;/font&gt;" style="edgeLabel;resizable=0;html=1;align=center;verticalAlign=middle;" connectable="0" vertex="1" parent="qJLwlTwxIQTCb8-3PScf-243">
          <mxGeometry relative="1" as="geometry">
            <mxPoint x="90" as="offset" />
          </mxGeometry>
        </mxCell>
        <mxCell id="qJLwlTwxIQTCb8-3PScf-245" value="" style="endArrow=classic;html=1;exitX=0.5;exitY=1;exitDx=0;exitDy=0;entryX=0.5;entryY=1;entryDx=0;entryDy=0;" edge="1" parent="1" source="qJLwlTwxIQTCb8-3PScf-22" target="qJLwlTwxIQTCb8-3PScf-54">
          <mxGeometry relative="1" as="geometry">
            <mxPoint x="290" y="1829" as="sourcePoint" />
            <mxPoint x="2140" y="2230" as="targetPoint" />
            <Array as="points">
              <mxPoint x="890" y="2280" />
              <mxPoint x="2130" y="2280" />
            </Array>
          </mxGeometry>
        </mxCell>
        <mxCell id="qJLwlTwxIQTCb8-3PScf-246" value="&lt;font style=&quot;font-size: 17px;&quot;&gt;has-ears&lt;/font&gt;" style="edgeLabel;resizable=0;html=1;align=center;verticalAlign=middle;" connectable="0" vertex="1" parent="qJLwlTwxIQTCb8-3PScf-245">
          <mxGeometry relative="1" as="geometry">
            <mxPoint x="119" as="offset" />
          </mxGeometry>
        </mxCell>
        <mxCell id="qJLwlTwxIQTCb8-3PScf-247" value="" style="endArrow=classic;html=1;exitX=0.5;exitY=1;exitDx=0;exitDy=0;entryX=0.5;entryY=1;entryDx=0;entryDy=0;" edge="1" parent="1" source="qJLwlTwxIQTCb8-3PScf-31" target="qJLwlTwxIQTCb8-3PScf-54">
          <mxGeometry relative="1" as="geometry">
            <mxPoint x="900" y="1832" as="sourcePoint" />
            <mxPoint x="2140" y="2230" as="targetPoint" />
            <Array as="points">
              <mxPoint x="1130" y="2300" />
              <mxPoint x="2130" y="2300" />
            </Array>
          </mxGeometry>
        </mxCell>
        <mxCell id="qJLwlTwxIQTCb8-3PScf-248" value="&lt;font style=&quot;font-size: 17px;&quot;&gt;has-ears&lt;/font&gt;" style="edgeLabel;resizable=0;html=1;align=center;verticalAlign=middle;" connectable="0" vertex="1" parent="qJLwlTwxIQTCb8-3PScf-247">
          <mxGeometry relative="1" as="geometry">
            <mxPoint x="149" as="offset" />
          </mxGeometry>
        </mxCell>
        <mxCell id="qJLwlTwxIQTCb8-3PScf-249" value="" style="endArrow=classic;html=1;exitX=0.5;exitY=1;exitDx=0;exitDy=0;entryX=0.5;entryY=1;entryDx=0;entryDy=0;" edge="1" parent="1" source="qJLwlTwxIQTCb8-3PScf-23" target="qJLwlTwxIQTCb8-3PScf-140">
          <mxGeometry relative="1" as="geometry">
            <mxPoint x="1020" y="1832" as="sourcePoint" />
            <mxPoint x="2340" y="2230" as="targetPoint" />
            <Array as="points">
              <mxPoint x="1250" y="3290" />
              <mxPoint x="2118" y="3290" />
            </Array>
          </mxGeometry>
        </mxCell>
        <mxCell id="qJLwlTwxIQTCb8-3PScf-250" value="&lt;font style=&quot;font-size: 17px;&quot;&gt;has-color&lt;/font&gt;" style="edgeLabel;resizable=0;html=1;align=center;verticalAlign=middle;" connectable="0" vertex="1" parent="qJLwlTwxIQTCb8-3PScf-249">
          <mxGeometry relative="1" as="geometry">
            <mxPoint x="670" y="264" as="offset" />
          </mxGeometry>
        </mxCell>
        <mxCell id="qJLwlTwxIQTCb8-3PScf-251" value="" style="endArrow=classic;html=1;exitX=0.5;exitY=1;exitDx=0;exitDy=0;entryX=0.5;entryY=1;entryDx=0;entryDy=0;" edge="1" parent="1" source="qJLwlTwxIQTCb8-3PScf-39" target="qJLwlTwxIQTCb8-3PScf-229">
          <mxGeometry relative="1" as="geometry">
            <mxPoint x="1260" y="1832" as="sourcePoint" />
            <mxPoint x="2128" y="3310" as="targetPoint" />
            <Array as="points">
              <mxPoint x="1370" y="3350" />
              <mxPoint x="2260" y="3350" />
            </Array>
          </mxGeometry>
        </mxCell>
        <mxCell id="qJLwlTwxIQTCb8-3PScf-252" value="&lt;font style=&quot;font-size: 17px;&quot;&gt;has-color&lt;/font&gt;" style="edgeLabel;resizable=0;html=1;align=center;verticalAlign=middle;" connectable="0" vertex="1" parent="qJLwlTwxIQTCb8-3PScf-251">
          <mxGeometry relative="1" as="geometry">
            <mxPoint x="100" y="255" as="offset" />
          </mxGeometry>
        </mxCell>
        <mxCell id="qJLwlTwxIQTCb8-3PScf-253" value="" style="endArrow=classic;html=1;exitX=0.5;exitY=1;exitDx=0;exitDy=0;entryX=0.5;entryY=1;entryDx=0;entryDy=0;" edge="1" parent="1" source="qJLwlTwxIQTCb8-3PScf-23" target="qJLwlTwxIQTCb8-3PScf-52">
          <mxGeometry relative="1" as="geometry">
            <mxPoint x="1020" y="1832" as="sourcePoint" />
            <mxPoint x="2340" y="2230" as="targetPoint" />
            <Array as="points">
              <mxPoint x="1250" y="2420" />
              <mxPoint x="2260" y="2420" />
            </Array>
          </mxGeometry>
        </mxCell>
        <mxCell id="qJLwlTwxIQTCb8-3PScf-254" value="&lt;font style=&quot;font-size: 17px;&quot;&gt;has-ears&lt;/font&gt;" style="edgeLabel;resizable=0;html=1;align=center;verticalAlign=middle;" connectable="0" vertex="1" parent="qJLwlTwxIQTCb8-3PScf-253">
          <mxGeometry relative="1" as="geometry">
            <mxPoint x="138" as="offset" />
          </mxGeometry>
        </mxCell>
        <mxCell id="qJLwlTwxIQTCb8-3PScf-255" value="" style="endArrow=classic;html=1;exitX=0.5;exitY=1;exitDx=0;exitDy=0;entryX=0.5;entryY=1;entryDx=0;entryDy=0;" edge="1" parent="1" source="qJLwlTwxIQTCb8-3PScf-39" target="qJLwlTwxIQTCb8-3PScf-52">
          <mxGeometry relative="1" as="geometry">
            <mxPoint x="1030" y="1842" as="sourcePoint" />
            <mxPoint x="2350" y="2240" as="targetPoint" />
            <Array as="points">
              <mxPoint x="1370" y="2440" />
              <mxPoint x="2260" y="2440" />
            </Array>
          </mxGeometry>
        </mxCell>
        <mxCell id="qJLwlTwxIQTCb8-3PScf-256" value="&lt;font style=&quot;font-size: 17px;&quot;&gt;has-ears&lt;/font&gt;" style="edgeLabel;resizable=0;html=1;align=center;verticalAlign=middle;" connectable="0" vertex="1" parent="qJLwlTwxIQTCb8-3PScf-255">
          <mxGeometry relative="1" as="geometry">
            <mxPoint x="241" as="offset" />
          </mxGeometry>
        </mxCell>
        <mxCell id="qJLwlTwxIQTCb8-3PScf-257" value="" style="endArrow=classic;html=1;exitX=0.5;exitY=1;exitDx=0;exitDy=0;entryX=0.5;entryY=1;entryDx=0;entryDy=0;" edge="1" parent="1" source="qJLwlTwxIQTCb8-3PScf-23" target="qJLwlTwxIQTCb8-3PScf-48">
          <mxGeometry relative="1" as="geometry">
            <mxPoint x="660" y="1829" as="sourcePoint" />
            <mxPoint x="-430" y="2448" as="targetPoint" />
            <Array as="points">
              <mxPoint x="1250" y="2660" />
              <mxPoint x="-280" y="2660" />
            </Array>
          </mxGeometry>
        </mxCell>
        <mxCell id="qJLwlTwxIQTCb8-3PScf-258" value="&lt;font style=&quot;font-size: 17px;&quot;&gt;has-height&lt;/font&gt;" style="edgeLabel;resizable=0;html=1;align=center;verticalAlign=middle;" connectable="0" vertex="1" parent="qJLwlTwxIQTCb8-3PScf-257">
          <mxGeometry relative="1" as="geometry">
            <mxPoint x="-684" as="offset" />
          </mxGeometry>
        </mxCell>
        <mxCell id="qJLwlTwxIQTCb8-3PScf-259" value="" style="endArrow=classic;html=1;exitX=0.5;exitY=1;exitDx=0;exitDy=0;entryX=0.5;entryY=1;entryDx=0;entryDy=0;" edge="1" parent="1" source="qJLwlTwxIQTCb8-3PScf-39" target="qJLwlTwxIQTCb8-3PScf-48">
          <mxGeometry relative="1" as="geometry">
            <mxPoint x="1260" y="1832" as="sourcePoint" />
            <mxPoint x="-430" y="2448" as="targetPoint" />
            <Array as="points">
              <mxPoint x="1370" y="2680" />
              <mxPoint x="-280" y="2680" />
            </Array>
          </mxGeometry>
        </mxCell>
        <mxCell id="qJLwlTwxIQTCb8-3PScf-260" value="&lt;font style=&quot;font-size: 17px;&quot;&gt;has-height&lt;/font&gt;" style="edgeLabel;resizable=0;html=1;align=center;verticalAlign=middle;" connectable="0" vertex="1" parent="qJLwlTwxIQTCb8-3PScf-259">
          <mxGeometry relative="1" as="geometry">
            <mxPoint x="-625" as="offset" />
          </mxGeometry>
        </mxCell>
        <mxCell id="qJLwlTwxIQTCb8-3PScf-261" value="" style="endArrow=classic;html=1;exitX=0.5;exitY=1;exitDx=0;exitDy=0;entryX=0.5;entryY=1;entryDx=0;entryDy=0;" edge="1" parent="1" source="qJLwlTwxIQTCb8-3PScf-23" target="qJLwlTwxIQTCb8-3PScf-148">
          <mxGeometry relative="1" as="geometry">
            <mxPoint x="1380" y="1829" as="sourcePoint" />
            <mxPoint x="1640" y="2530" as="targetPoint" />
            <Array as="points">
              <mxPoint x="1250" y="2610" />
              <mxPoint x="2118" y="2610" />
            </Array>
          </mxGeometry>
        </mxCell>
        <mxCell id="qJLwlTwxIQTCb8-3PScf-262" value="&lt;font style=&quot;font-size: 17px;&quot;&gt;has-height&lt;/font&gt;" style="edgeLabel;resizable=0;html=1;align=center;verticalAlign=middle;" connectable="0" vertex="1" parent="qJLwlTwxIQTCb8-3PScf-261">
          <mxGeometry relative="1" as="geometry">
            <mxPoint x="6" as="offset" />
          </mxGeometry>
        </mxCell>
        <mxCell id="qJLwlTwxIQTCb8-3PScf-263" value="" style="endArrow=classic;html=1;exitX=0.5;exitY=1;exitDx=0;exitDy=0;entryX=0.5;entryY=1;entryDx=0;entryDy=0;" edge="1" parent="1" source="qJLwlTwxIQTCb8-3PScf-39" target="qJLwlTwxIQTCb8-3PScf-148">
          <mxGeometry relative="1" as="geometry">
            <mxPoint x="1260" y="1832" as="sourcePoint" />
            <mxPoint x="2128" y="2670" as="targetPoint" />
            <Array as="points">
              <mxPoint x="1370" y="2640" />
              <mxPoint x="2118" y="2640" />
            </Array>
          </mxGeometry>
        </mxCell>
        <mxCell id="qJLwlTwxIQTCb8-3PScf-264" value="&lt;font style=&quot;font-size: 17px;&quot;&gt;has-height&lt;/font&gt;" style="edgeLabel;resizable=0;html=1;align=center;verticalAlign=middle;" connectable="0" vertex="1" parent="qJLwlTwxIQTCb8-3PScf-263">
          <mxGeometry relative="1" as="geometry">
            <mxPoint x="60" y="6" as="offset" />
          </mxGeometry>
        </mxCell>
        <mxCell id="qJLwlTwxIQTCb8-3PScf-265" value="" style="endArrow=classic;html=1;exitX=0.5;exitY=1;exitDx=0;exitDy=0;entryX=0.5;entryY=1;entryDx=0;entryDy=0;" edge="1" parent="1" source="qJLwlTwxIQTCb8-3PScf-34" target="qJLwlTwxIQTCb8-3PScf-54">
          <mxGeometry relative="1" as="geometry">
            <mxPoint x="1140" y="1832" as="sourcePoint" />
            <mxPoint x="2140" y="2230" as="targetPoint" />
            <Array as="points">
              <mxPoint x="1490" y="2320" />
              <mxPoint x="2130" y="2320" />
            </Array>
          </mxGeometry>
        </mxCell>
        <mxCell id="qJLwlTwxIQTCb8-3PScf-266" value="&lt;font style=&quot;font-size: 17px;&quot;&gt;has-ears&lt;/font&gt;" style="edgeLabel;resizable=0;html=1;align=center;verticalAlign=middle;" connectable="0" vertex="1" parent="qJLwlTwxIQTCb8-3PScf-265">
          <mxGeometry relative="1" as="geometry">
            <mxPoint x="121" as="offset" />
          </mxGeometry>
        </mxCell>
        <mxCell id="qJLwlTwxIQTCb8-3PScf-267" value="" style="endArrow=classic;html=1;exitX=0.5;exitY=1;exitDx=0;exitDy=0;entryX=0.5;entryY=1;entryDx=0;entryDy=0;" edge="1" parent="1" source="qJLwlTwxIQTCb8-3PScf-38" target="qJLwlTwxIQTCb8-3PScf-54">
          <mxGeometry relative="1" as="geometry">
            <mxPoint x="1504" y="1829" as="sourcePoint" />
            <mxPoint x="2140" y="2230" as="targetPoint" />
            <Array as="points">
              <mxPoint x="1610" y="2340" />
              <mxPoint x="2130" y="2340" />
            </Array>
          </mxGeometry>
        </mxCell>
        <mxCell id="qJLwlTwxIQTCb8-3PScf-268" value="&lt;font style=&quot;font-size: 17px;&quot;&gt;has-ears&lt;/font&gt;" style="edgeLabel;resizable=0;html=1;align=center;verticalAlign=middle;" connectable="0" vertex="1" parent="qJLwlTwxIQTCb8-3PScf-267">
          <mxGeometry relative="1" as="geometry">
            <mxPoint x="176" as="offset" />
          </mxGeometry>
        </mxCell>
        <mxCell id="qJLwlTwxIQTCb8-3PScf-269" value="" style="endArrow=classic;html=1;exitX=0.5;exitY=1;exitDx=0;exitDy=0;entryX=0.5;entryY=1;entryDx=0;entryDy=0;" edge="1" parent="1" source="qJLwlTwxIQTCb8-3PScf-34" target="qJLwlTwxIQTCb8-3PScf-48">
          <mxGeometry relative="1" as="geometry">
            <mxPoint x="1380" y="1829" as="sourcePoint" />
            <mxPoint x="-430" y="2448" as="targetPoint" />
            <Array as="points">
              <mxPoint x="1490" y="2710" />
              <mxPoint x="-280" y="2700" />
            </Array>
          </mxGeometry>
        </mxCell>
        <mxCell id="qJLwlTwxIQTCb8-3PScf-270" value="&lt;font style=&quot;font-size: 17px;&quot;&gt;has-height&lt;/font&gt;" style="edgeLabel;resizable=0;html=1;align=center;verticalAlign=middle;" connectable="0" vertex="1" parent="qJLwlTwxIQTCb8-3PScf-269">
          <mxGeometry relative="1" as="geometry">
            <mxPoint x="-581" y="-7" as="offset" />
          </mxGeometry>
        </mxCell>
        <mxCell id="qJLwlTwxIQTCb8-3PScf-271" value="" style="endArrow=classic;html=1;exitX=0.5;exitY=1;exitDx=0;exitDy=0;entryX=0.5;entryY=1;entryDx=0;entryDy=0;" edge="1" parent="1" source="qJLwlTwxIQTCb8-3PScf-38" target="qJLwlTwxIQTCb8-3PScf-48">
          <mxGeometry relative="1" as="geometry">
            <mxPoint x="1504" y="1829" as="sourcePoint" />
            <mxPoint x="-430" y="2448" as="targetPoint" />
            <Array as="points">
              <mxPoint x="1610" y="2730" />
              <mxPoint x="-280" y="2720" />
            </Array>
          </mxGeometry>
        </mxCell>
        <mxCell id="qJLwlTwxIQTCb8-3PScf-272" value="&lt;font style=&quot;font-size: 17px;&quot;&gt;has-height&lt;/font&gt;" style="edgeLabel;resizable=0;html=1;align=center;verticalAlign=middle;" connectable="0" vertex="1" parent="qJLwlTwxIQTCb8-3PScf-271">
          <mxGeometry relative="1" as="geometry">
            <mxPoint x="-518" as="offset" />
          </mxGeometry>
        </mxCell>
        <mxCell id="qJLwlTwxIQTCb8-3PScf-273" value="" style="endArrow=classic;html=1;exitX=0.5;exitY=1;exitDx=0;exitDy=0;entryX=0.5;entryY=1;entryDx=0;entryDy=0;" edge="1" parent="1" source="qJLwlTwxIQTCb8-3PScf-34" target="qJLwlTwxIQTCb8-3PScf-148">
          <mxGeometry relative="1" as="geometry">
            <mxPoint x="1380" y="1829" as="sourcePoint" />
            <mxPoint x="2128" y="2670" as="targetPoint" />
            <Array as="points">
              <mxPoint x="1490" y="2670" />
              <mxPoint x="2118" y="2670" />
            </Array>
          </mxGeometry>
        </mxCell>
        <mxCell id="qJLwlTwxIQTCb8-3PScf-274" value="&lt;font style=&quot;font-size: 17px;&quot;&gt;has-height&lt;/font&gt;" style="edgeLabel;resizable=0;html=1;align=center;verticalAlign=middle;" connectable="0" vertex="1" parent="qJLwlTwxIQTCb8-3PScf-273">
          <mxGeometry relative="1" as="geometry">
            <mxPoint x="60" y="66" as="offset" />
          </mxGeometry>
        </mxCell>
        <mxCell id="qJLwlTwxIQTCb8-3PScf-277" value="" style="endArrow=classic;html=1;exitX=0.5;exitY=1;exitDx=0;exitDy=0;entryX=0.5;entryY=1;entryDx=0;entryDy=0;" edge="1" parent="1" source="qJLwlTwxIQTCb8-3PScf-38" target="qJLwlTwxIQTCb8-3PScf-148">
          <mxGeometry relative="1" as="geometry">
            <mxPoint x="1504" y="1829" as="sourcePoint" />
            <mxPoint x="2128" y="2670" as="targetPoint" />
            <Array as="points">
              <mxPoint x="1610" y="2700" />
              <mxPoint x="2118" y="2700" />
            </Array>
          </mxGeometry>
        </mxCell>
        <mxCell id="qJLwlTwxIQTCb8-3PScf-278" value="&lt;font style=&quot;font-size: 17px;&quot;&gt;has-height&lt;/font&gt;" style="edgeLabel;resizable=0;html=1;align=center;verticalAlign=middle;" connectable="0" vertex="1" parent="qJLwlTwxIQTCb8-3PScf-277">
          <mxGeometry relative="1" as="geometry">
            <mxPoint x="60" y="126" as="offset" />
          </mxGeometry>
        </mxCell>
        <mxCell id="qJLwlTwxIQTCb8-3PScf-279" value="" style="endArrow=classic;html=1;exitX=0.5;exitY=1;exitDx=0;exitDy=0;entryX=0.5;entryY=1;entryDx=0;entryDy=0;" edge="1" parent="1" source="qJLwlTwxIQTCb8-3PScf-34" target="qJLwlTwxIQTCb8-3PScf-146">
          <mxGeometry relative="1" as="geometry">
            <mxPoint x="660" y="1829" as="sourcePoint" />
            <mxPoint x="670" y="2790" as="targetPoint" />
            <Array as="points">
              <mxPoint x="1490" y="3180" />
              <mxPoint x="-280" y="3180" />
            </Array>
          </mxGeometry>
        </mxCell>
        <mxCell id="qJLwlTwxIQTCb8-3PScf-280" value="&lt;font style=&quot;font-size: 17px;&quot;&gt;has-weight&lt;/font&gt;" style="edgeLabel;resizable=0;html=1;align=center;verticalAlign=middle;" connectable="0" vertex="1" parent="qJLwlTwxIQTCb8-3PScf-279">
          <mxGeometry relative="1" as="geometry">
            <mxPoint x="-249" as="offset" />
          </mxGeometry>
        </mxCell>
        <mxCell id="qJLwlTwxIQTCb8-3PScf-281" value="" style="endArrow=classic;html=1;exitX=0.5;exitY=1;exitDx=0;exitDy=0;entryX=0.5;entryY=1;entryDx=0;entryDy=0;" edge="1" parent="1" source="qJLwlTwxIQTCb8-3PScf-38" target="qJLwlTwxIQTCb8-3PScf-147">
          <mxGeometry relative="1" as="geometry">
            <mxPoint x="1504" y="1829" as="sourcePoint" />
            <mxPoint x="-430" y="3150" as="targetPoint" />
            <Array as="points">
              <mxPoint x="1610" y="3220" />
              <mxPoint x="-120" y="3210" />
            </Array>
          </mxGeometry>
        </mxCell>
        <mxCell id="qJLwlTwxIQTCb8-3PScf-282" value="&lt;font style=&quot;font-size: 17px;&quot;&gt;has-weight&lt;/font&gt;" style="edgeLabel;resizable=0;html=1;align=center;verticalAlign=middle;" connectable="0" vertex="1" parent="qJLwlTwxIQTCb8-3PScf-281">
          <mxGeometry relative="1" as="geometry">
            <mxPoint x="-249" as="offset" />
          </mxGeometry>
        </mxCell>
        <mxCell id="qJLwlTwxIQTCb8-3PScf-283" value="" style="endArrow=classic;html=1;exitX=0.5;exitY=1;exitDx=0;exitDy=0;entryX=0.5;entryY=1;entryDx=0;entryDy=0;" edge="1" parent="1" source="qJLwlTwxIQTCb8-3PScf-37" target="qJLwlTwxIQTCb8-3PScf-230">
          <mxGeometry relative="1" as="geometry">
            <mxPoint x="1620" y="1832" as="sourcePoint" />
            <mxPoint x="2128" y="2590" as="targetPoint" />
            <Array as="points">
              <mxPoint x="1730" y="2730" />
              <mxPoint x="2260" y="2730" />
            </Array>
          </mxGeometry>
        </mxCell>
        <mxCell id="qJLwlTwxIQTCb8-3PScf-284" value="&lt;font style=&quot;font-size: 17px;&quot;&gt;has-height&lt;/font&gt;" style="edgeLabel;resizable=0;html=1;align=center;verticalAlign=middle;" connectable="0" vertex="1" parent="qJLwlTwxIQTCb8-3PScf-283">
          <mxGeometry relative="1" as="geometry">
            <mxPoint x="180" y="114" as="offset" />
          </mxGeometry>
        </mxCell>
        <mxCell id="qJLwlTwxIQTCb8-3PScf-285" value="" style="endArrow=classic;html=1;exitX=0.5;exitY=1;exitDx=0;exitDy=0;entryX=0.5;entryY=1;entryDx=0;entryDy=0;" edge="1" parent="1" source="qJLwlTwxIQTCb8-3PScf-36" target="qJLwlTwxIQTCb8-3PScf-230">
          <mxGeometry relative="1" as="geometry">
            <mxPoint x="1740" y="1832" as="sourcePoint" />
            <mxPoint x="2330" y="2590" as="targetPoint" />
            <Array as="points">
              <mxPoint x="1850" y="2760" />
              <mxPoint x="2260" y="2760" />
            </Array>
          </mxGeometry>
        </mxCell>
        <mxCell id="qJLwlTwxIQTCb8-3PScf-286" value="&lt;font style=&quot;font-size: 17px;&quot;&gt;has-height&lt;/font&gt;" style="edgeLabel;resizable=0;html=1;align=center;verticalAlign=middle;" connectable="0" vertex="1" parent="qJLwlTwxIQTCb8-3PScf-285">
          <mxGeometry relative="1" as="geometry">
            <mxPoint x="180" y="175" as="offset" />
          </mxGeometry>
        </mxCell>
        <mxCell id="qJLwlTwxIQTCb8-3PScf-287" value="" style="endArrow=classic;html=1;exitX=0.5;exitY=1;exitDx=0;exitDy=0;entryX=0.5;entryY=1;entryDx=0;entryDy=0;" edge="1" parent="1" source="qJLwlTwxIQTCb8-3PScf-35" target="qJLwlTwxIQTCb8-3PScf-230">
          <mxGeometry relative="1" as="geometry">
            <mxPoint x="1860" y="1829" as="sourcePoint" />
            <mxPoint x="2330" y="2590" as="targetPoint" />
            <Array as="points">
              <mxPoint x="1970" y="2790" />
              <mxPoint x="2260" y="2790" />
            </Array>
          </mxGeometry>
        </mxCell>
        <mxCell id="qJLwlTwxIQTCb8-3PScf-288" value="&lt;font style=&quot;font-size: 17px;&quot;&gt;has-height&lt;/font&gt;" style="edgeLabel;resizable=0;html=1;align=center;verticalAlign=middle;" connectable="0" vertex="1" parent="qJLwlTwxIQTCb8-3PScf-287">
          <mxGeometry relative="1" as="geometry">
            <mxPoint x="180" y="235" as="offset" />
          </mxGeometry>
        </mxCell>
        <mxCell id="qJLwlTwxIQTCb8-3PScf-289" value="" style="endArrow=classic;html=1;exitX=0.5;exitY=1;exitDx=0;exitDy=0;entryX=0.5;entryY=1;entryDx=0;entryDy=0;" edge="1" parent="1" source="qJLwlTwxIQTCb8-3PScf-37" target="qJLwlTwxIQTCb8-3PScf-48">
          <mxGeometry relative="1" as="geometry">
            <mxPoint x="1620" y="1832" as="sourcePoint" />
            <mxPoint x="-430" y="2448" as="targetPoint" />
            <Array as="points">
              <mxPoint x="1730" y="2750" />
              <mxPoint x="-280" y="2740" />
            </Array>
          </mxGeometry>
        </mxCell>
        <mxCell id="qJLwlTwxIQTCb8-3PScf-290" value="&lt;font style=&quot;font-size: 17px;&quot;&gt;has-height&lt;/font&gt;" style="edgeLabel;resizable=0;html=1;align=center;verticalAlign=middle;" connectable="0" vertex="1" parent="qJLwlTwxIQTCb8-3PScf-289">
          <mxGeometry relative="1" as="geometry">
            <mxPoint x="-448" as="offset" />
          </mxGeometry>
        </mxCell>
        <mxCell id="qJLwlTwxIQTCb8-3PScf-291" value="" style="endArrow=classic;html=1;exitX=0.5;exitY=1;exitDx=0;exitDy=0;entryX=0.5;entryY=1;entryDx=0;entryDy=0;" edge="1" parent="1" source="qJLwlTwxIQTCb8-3PScf-36" target="qJLwlTwxIQTCb8-3PScf-48">
          <mxGeometry relative="1" as="geometry">
            <mxPoint x="1740" y="1832" as="sourcePoint" />
            <mxPoint x="-430" y="2448" as="targetPoint" />
            <Array as="points">
              <mxPoint x="1850" y="2770" />
              <mxPoint x="-280" y="2760" />
            </Array>
          </mxGeometry>
        </mxCell>
        <mxCell id="qJLwlTwxIQTCb8-3PScf-292" value="&lt;font style=&quot;font-size: 17px;&quot;&gt;has-height&lt;/font&gt;" style="edgeLabel;resizable=0;html=1;align=center;verticalAlign=middle;" connectable="0" vertex="1" parent="qJLwlTwxIQTCb8-3PScf-291">
          <mxGeometry relative="1" as="geometry">
            <mxPoint x="-391" y="-3" as="offset" />
          </mxGeometry>
        </mxCell>
        <mxCell id="qJLwlTwxIQTCb8-3PScf-293" value="" style="endArrow=classic;html=1;exitX=0.5;exitY=1;exitDx=0;exitDy=0;entryX=0.5;entryY=1;entryDx=0;entryDy=0;" edge="1" parent="1" source="qJLwlTwxIQTCb8-3PScf-35" target="qJLwlTwxIQTCb8-3PScf-48">
          <mxGeometry relative="1" as="geometry">
            <mxPoint x="1860" y="1829" as="sourcePoint" />
            <mxPoint x="-430" y="2448" as="targetPoint" />
            <Array as="points">
              <mxPoint x="1970" y="2790" />
              <mxPoint x="-280" y="2790" />
              <mxPoint x="-280" y="2620" />
            </Array>
          </mxGeometry>
        </mxCell>
        <mxCell id="qJLwlTwxIQTCb8-3PScf-294" value="&lt;font style=&quot;font-size: 17px;&quot;&gt;has-height&lt;/font&gt;" style="edgeLabel;resizable=0;html=1;align=center;verticalAlign=middle;" connectable="0" vertex="1" parent="qJLwlTwxIQTCb8-3PScf-293">
          <mxGeometry relative="1" as="geometry">
            <mxPoint x="-305" as="offset" />
          </mxGeometry>
        </mxCell>
        <mxCell id="qJLwlTwxIQTCb8-3PScf-295" value="" style="endArrow=classic;html=1;exitX=0.5;exitY=1;exitDx=0;exitDy=0;entryX=0.5;entryY=1;entryDx=0;entryDy=0;" edge="1" parent="1" source="qJLwlTwxIQTCb8-3PScf-37" target="qJLwlTwxIQTCb8-3PScf-228">
          <mxGeometry relative="1" as="geometry">
            <mxPoint x="1260" y="1832" as="sourcePoint" />
            <mxPoint x="2128" y="3310" as="targetPoint" />
            <Array as="points">
              <mxPoint x="1730" y="3020" />
              <mxPoint x="2118" y="3020" />
            </Array>
          </mxGeometry>
        </mxCell>
        <mxCell id="qJLwlTwxIQTCb8-3PScf-296" value="&lt;font style=&quot;font-size: 17px;&quot;&gt;has-color&lt;/font&gt;" style="edgeLabel;resizable=0;html=1;align=center;verticalAlign=middle;" connectable="0" vertex="1" parent="qJLwlTwxIQTCb8-3PScf-295">
          <mxGeometry relative="1" as="geometry">
            <mxPoint x="180" y="384" as="offset" />
          </mxGeometry>
        </mxCell>
        <mxCell id="qJLwlTwxIQTCb8-3PScf-297" value="" style="endArrow=classic;html=1;exitX=0.5;exitY=1;exitDx=0;exitDy=0;entryX=0.5;entryY=1;entryDx=0;entryDy=0;" edge="1" parent="1" source="qJLwlTwxIQTCb8-3PScf-36" target="qJLwlTwxIQTCb8-3PScf-228">
          <mxGeometry relative="1" as="geometry">
            <mxPoint x="1740" y="1832" as="sourcePoint" />
            <mxPoint x="2128" y="2990" as="targetPoint" />
            <Array as="points">
              <mxPoint x="1850" y="3040" />
              <mxPoint x="2118" y="3040" />
            </Array>
          </mxGeometry>
        </mxCell>
        <mxCell id="qJLwlTwxIQTCb8-3PScf-298" value="&lt;font style=&quot;font-size: 17px;&quot;&gt;has-color&lt;/font&gt;" style="edgeLabel;resizable=0;html=1;align=center;verticalAlign=middle;" connectable="0" vertex="1" parent="qJLwlTwxIQTCb8-3PScf-297">
          <mxGeometry relative="1" as="geometry">
            <mxPoint x="170" y="447" as="offset" />
          </mxGeometry>
        </mxCell>
        <mxCell id="qJLwlTwxIQTCb8-3PScf-299" value="" style="endArrow=classic;html=1;exitX=0.5;exitY=1;exitDx=0;exitDy=0;entryX=0.5;entryY=1;entryDx=0;entryDy=0;" edge="1" parent="1" source="qJLwlTwxIQTCb8-3PScf-35" target="qJLwlTwxIQTCb8-3PScf-143">
          <mxGeometry relative="1" as="geometry">
            <mxPoint x="1860" y="1829" as="sourcePoint" />
            <mxPoint x="2128" y="2990" as="targetPoint" />
            <Array as="points">
              <mxPoint x="1970" y="3060" />
              <mxPoint x="2260" y="3060" />
            </Array>
          </mxGeometry>
        </mxCell>
        <mxCell id="qJLwlTwxIQTCb8-3PScf-300" value="&lt;font style=&quot;font-size: 17px;&quot;&gt;has-color&lt;/font&gt;" style="edgeLabel;resizable=0;html=1;align=center;verticalAlign=middle;" connectable="0" vertex="1" parent="qJLwlTwxIQTCb8-3PScf-299">
          <mxGeometry relative="1" as="geometry">
            <mxPoint x="198" y="435" as="offset" />
          </mxGeometry>
        </mxCell>
        <mxCell id="qJLwlTwxIQTCb8-3PScf-301" value="" style="endArrow=classic;html=1;exitX=0.5;exitY=1;exitDx=0;exitDy=0;" edge="1" parent="1" source="qJLwlTwxIQTCb8-3PScf-37" target="qJLwlTwxIQTCb8-3PScf-140">
          <mxGeometry relative="1" as="geometry">
            <mxPoint x="1740" y="1832" as="sourcePoint" />
            <mxPoint x="2120" y="3220" as="targetPoint" />
            <Array as="points">
              <mxPoint x="1730" y="3260" />
              <mxPoint x="2118" y="3260" />
            </Array>
          </mxGeometry>
        </mxCell>
        <mxCell id="qJLwlTwxIQTCb8-3PScf-302" value="&lt;font style=&quot;font-size: 17px;&quot;&gt;has-color&lt;/font&gt;" style="edgeLabel;resizable=0;html=1;align=center;verticalAlign=middle;" connectable="0" vertex="1" parent="qJLwlTwxIQTCb8-3PScf-301">
          <mxGeometry relative="1" as="geometry">
            <mxPoint x="70" y="504" as="offset" />
          </mxGeometry>
        </mxCell>
        <mxCell id="qJLwlTwxIQTCb8-3PScf-303" value="" style="endArrow=classic;html=1;exitX=0.5;exitY=1;exitDx=0;exitDy=0;entryX=0.5;entryY=1;entryDx=0;entryDy=0;" edge="1" parent="1" source="qJLwlTwxIQTCb8-3PScf-36" target="qJLwlTwxIQTCb8-3PScf-229">
          <mxGeometry relative="1" as="geometry">
            <mxPoint x="1860" y="1829" as="sourcePoint" />
            <mxPoint x="2128" y="2990" as="targetPoint" />
            <Array as="points">
              <mxPoint x="1850" y="3320" />
              <mxPoint x="2260" y="3320" />
            </Array>
          </mxGeometry>
        </mxCell>
        <mxCell id="qJLwlTwxIQTCb8-3PScf-304" value="&lt;font style=&quot;font-size: 17px;&quot;&gt;has-color&lt;/font&gt;" style="edgeLabel;resizable=0;html=1;align=center;verticalAlign=middle;" connectable="0" vertex="1" parent="qJLwlTwxIQTCb8-3PScf-303">
          <mxGeometry relative="1" as="geometry">
            <mxPoint x="290" y="495" as="offset" />
          </mxGeometry>
        </mxCell>
        <mxCell id="qJLwlTwxIQTCb8-3PScf-306" value="" style="endArrow=classic;html=1;entryX=0.5;entryY=1;entryDx=0;entryDy=0;exitX=0.5;exitY=0;exitDx=0;exitDy=0;" edge="1" parent="1" source="qJLwlTwxIQTCb8-3PScf-125" target="qJLwlTwxIQTCb8-3PScf-7">
          <mxGeometry relative="1" as="geometry">
            <mxPoint x="1800" y="620" as="sourcePoint" />
            <mxPoint x="1740" y="570" as="targetPoint" />
          </mxGeometry>
        </mxCell>
        <mxCell id="qJLwlTwxIQTCb8-3PScf-307" value="&lt;font style=&quot;font-size: 17px;&quot;&gt;AKO&lt;/font&gt;" style="edgeLabel;resizable=0;html=1;align=center;verticalAlign=middle;" connectable="0" vertex="1" parent="qJLwlTwxIQTCb8-3PScf-306">
          <mxGeometry relative="1" as="geometry" />
        </mxCell>
        <mxCell id="qJLwlTwxIQTCb8-3PScf-308" value="" style="endArrow=classic;html=1;entryX=0.5;entryY=1;entryDx=0;entryDy=0;exitX=0.5;exitY=0;exitDx=0;exitDy=0;" edge="1" parent="1" source="qJLwlTwxIQTCb8-3PScf-49" target="qJLwlTwxIQTCb8-3PScf-7">
          <mxGeometry relative="1" as="geometry">
            <mxPoint x="360" y="1430" as="sourcePoint" />
            <mxPoint x="820" y="1290" as="targetPoint" />
          </mxGeometry>
        </mxCell>
        <mxCell id="qJLwlTwxIQTCb8-3PScf-309" value="AKO" style="edgeLabel;resizable=0;html=1;align=center;verticalAlign=middle;fontSize=17;" connectable="0" vertex="1" parent="qJLwlTwxIQTCb8-3PScf-308">
          <mxGeometry relative="1" as="geometry" />
        </mxCell>
      </root>
    </mxGraphModel>
  </diagram>
</mxfile>
